<svg xmlns="http://www.w3.org/2000/svg" xmlns:xlink="http://www.w3.org/1999/xlink" width="118" height="118" viewBox="0 0 118 118">
  <defs>
    <filter id="Rectangle_411831" x="0" y="0" width="118" height="118" filterUnits="userSpaceOnUse">
      <feOffset dy="3" input="SourceAlpha"/>
      <feGaussianBlur stdDeviation="3" result="blur"/>
      <feFlood flood-opacity="0.161"/>
      <feComposite operator="in" in2="blur"/>
      <feComposite in="SourceGraphic"/>
    </filter>
    <clipPath id="clip-path">
      <rect id="Rectangle_425273" data-name="Rectangle 425273" width="74.011" height="55.298" fill="none"/>
    </clipPath>
  </defs>
  <g id="Group_1223957" data-name="Group 1223957" transform="translate(-791.781 -1956)">
    <g id="Group_1203409" data-name="Group 1203409" transform="translate(465 -1896)">
      <g transform="matrix(1, 0, 0, 1, 326.78, 3852)" filter="url(#Rectangle_411831)">
        <g id="Rectangle_411831-2" data-name="Rectangle 411831" transform="translate(9 6)" fill="#d9aef1" stroke="#fff" stroke-width="2">
          <path d="M5,0H68a32,32,0,0,1,32,32V95a5,5,0,0,1-5,5H32A32,32,0,0,1,0,68V5A5,5,0,0,1,5,0Z" stroke="none"/>
          <path d="M5,1H68A31,31,0,0,1,99,32V95a4,4,0,0,1-4,4H32A31,31,0,0,1,1,68V5A4,4,0,0,1,5,1Z" fill="none"/>
        </g>
      </g>
      <g id="Group_1223959" data-name="Group 1223959" transform="translate(354.157 3883.824)">
        <g id="Group_1223949" data-name="Group 1223949" transform="translate(0 0)" clip-path="url(#clip-path)">
          <path id="Path_1291015" data-name="Path 1291015" d="M57.382,43.812H8.292A8.3,8.3,0,0,1,0,35.521V8.291A8.3,8.3,0,0,1,8.292,0H57.382a8.3,8.3,0,0,1,8.292,8.291v27.23a8.3,8.3,0,0,1-8.292,8.291M8.292,2.087a6.21,6.21,0,0,0-6.2,6.2v27.23a6.21,6.21,0,0,0,6.2,6.2H57.382a6.21,6.21,0,0,0,6.2-6.2V8.291a6.21,6.21,0,0,0-6.2-6.2Z" transform="translate(0 0)" fill="#231f20"/>
          <rect id="Rectangle_425272" data-name="Rectangle 425272" width="44.434" height="41.724" transform="translate(12.946 1.044)" fill="#97e4ff"/>
          <path id="Path_1291016" data-name="Path 1291016" d="M53.974,43.813H9.54A1.044,1.044,0,0,1,8.5,42.769V1.044A1.045,1.045,0,0,1,9.54,0H53.974a1.045,1.045,0,0,1,1.045,1.044V42.769a1.044,1.044,0,0,1-1.045,1.044M10.585,41.726H52.931V2.089H10.585Z" transform="translate(3.407 0)" fill="#231f20"/>
          <path id="Path_1291017" data-name="Path 1291017" d="M5.516,21.738a1.045,1.045,0,0,1-1.044-1.044v-7.4a1.044,1.044,0,0,1,2.087,0v7.4a1.044,1.044,0,0,1-1.044,1.044" transform="translate(1.793 4.912)" fill="#231f20"/>
          <path id="Path_1291018" data-name="Path 1291018" d="M33.336,10.111c-1.788,0-4.07,1.419-5.223,2.607-1.15-1.188-3.434-2.607-5.22-2.607-3.5,0-5.667,2.838-5.667,6.339,0,5,8.444,10.558,10.887,11.823C30.527,27.036,39,21.447,39,16.45c0-3.5-2.169-6.339-5.668-6.339" transform="translate(6.907 4.054)" fill="#fff"/>
          <path id="Path_1291019" data-name="Path 1291019" d="M28.413,29.615a1.041,1.041,0,0,1-.481-.118,35.7,35.7,0,0,1-6.579-4.662c-3.235-2.907-4.874-5.628-4.874-8.086,0-4.278,2.823-7.383,6.712-7.383a9.115,9.115,0,0,1,5.221,2.24,9.106,9.106,0,0,1,5.22-2.24c3.889,0,6.712,3.1,6.712,7.383,0,2.459-1.643,5.182-4.885,8.1A35.249,35.249,0,0,1,28.89,29.5a1.06,1.06,0,0,1-.476.115M23.192,11.453a4.265,4.265,0,0,0-3.352,1.491,5.835,5.835,0,0,0-1.272,3.8c0,1.814,1.446,4.074,4.182,6.534a35.216,35.216,0,0,0,5.665,4.1c2.987-1.677,9.843-6.643,9.843-10.635a5.834,5.834,0,0,0-1.271-3.8,4.266,4.266,0,0,0-3.354-1.491,7.667,7.667,0,0,0-4.47,2.291,1.045,1.045,0,0,1-1.5,0,7.545,7.545,0,0,0-4.472-2.291" transform="translate(6.608 3.756)" fill="#231f20"/>
          <path id="Path_1291020" data-name="Path 1291020" d="M43.076,43.282l-5.721-5.721a5.618,5.618,0,0,1-1.548-2.936L35.335,32.1a2.85,2.85,0,0,0-.787-1.495l-7.136-7.136a3.04,3.04,0,0,1,4.3-4.3c.2.2,4.124,3.8,4.326,3.595l1.646-1.646a2.845,2.845,0,0,1,4.024,0l.377.377,1.062-1.061a2.976,2.976,0,0,1,4.207,0,2.8,2.8,0,0,1,3.953,0l7.376,7.375a10,10,0,0,1,2.192,3.309l1.261,3.11a2.708,2.708,0,0,1-.6,2.931l-8.975,8.976a2.706,2.706,0,0,1-2.887.611l-3.13-1.2a9.993,9.993,0,0,1-3.472-2.257" transform="translate(10.633 7.329)" fill="#fff"/>
          <path id="Path_1291021" data-name="Path 1291021" d="M50.947,48.268a3.726,3.726,0,0,1-1.346-.251l-3.13-1.2a10.961,10.961,0,0,1-3.834-2.492L36.913,38.6a6.631,6.631,0,0,1-1.835-3.481l-.471-2.527a1.814,1.814,0,0,0-.5-.947L26.971,24.5a4.084,4.084,0,0,1,5.775-5.776c.321.314,2.394,2.188,3.432,3.012l1.065-1.063a3.887,3.887,0,0,1,5.116-.338l.346-.346a4.026,4.026,0,0,1,4.95-.581,3.844,3.844,0,0,1,4.688.581l7.375,7.375a10.978,10.978,0,0,1,2.422,3.654l1.261,3.11a3.747,3.747,0,0,1-.824,4.063L53.6,47.169a3.755,3.755,0,0,1-2.655,1.1M29.858,19.621a2,2,0,0,0-1.411,3.407l7.136,7.136A3.885,3.885,0,0,1,36.66,32.2l.471,2.527A4.555,4.555,0,0,0,38.39,37.12l5.723,5.723a8.871,8.871,0,0,0,3.109,2.02l3.13,1.206a1.665,1.665,0,0,0,1.774-.377L61.1,36.718a1.658,1.658,0,0,0,.366-1.8L60.2,31.807a8.9,8.9,0,0,0-1.964-2.963l-7.375-7.375a1.755,1.755,0,0,0-2.477,0,1.044,1.044,0,0,1-1.477,0,1.935,1.935,0,0,0-2.732,0L43.12,22.531a1.044,1.044,0,0,1-1.477,0l-.377-.377a1.8,1.8,0,0,0-2.547,0L37.073,23.8a1.143,1.143,0,0,1-1.527.059c-.154-.1-.345-.234-.587-.422-.371-.29-.867-.7-1.474-1.233-1.03-.9-2.082-1.865-2.216-2a1.985,1.985,0,0,0-1.411-.584" transform="translate(10.335 7.031)" fill="#231f20"/>
        </g>
      </g>
    </g>
    <path id="Path_1260076" data-name="Path 1260076" d="M16.614.687H.856V7.046h11.25L.856,18.219,5.4,22.735,16.614,11.6V22.735h6.441V.687Z" transform="translate(799.924 2039.266)" fill="#1f1321" fill-rule="evenodd"/>
    <path id="Path_1260092" data-name="Path 1260092" d="M5.755,17.459H17.742V12.622H9.184l8.558-8.5L14.284.687,5.755,9.157V.687H.856V17.459Z" transform="translate(883.039 1961.314)" fill="#1f1321" fill-rule="evenodd"/>
  </g>
</svg>
