<svg xmlns="http://www.w3.org/2000/svg" xmlns:xlink="http://www.w3.org/1999/xlink" width="118" height="118" viewBox="0 0 118 118">
  <defs>
    <filter id="Rectangle_411831" x="0" y="0" width="118" height="118" filterUnits="userSpaceOnUse">
      <feOffset dy="3" input="SourceAlpha"/>
      <feGaussianBlur stdDeviation="3" result="blur"/>
      <feFlood flood-opacity="0.161"/>
      <feComposite operator="in" in2="blur"/>
      <feComposite in="SourceGraphic"/>
    </filter>
    <clipPath id="clip-path">
      <rect id="Rectangle_425271" data-name="Rectangle 425271" width="62.03" height="57.66" fill="none"/>
    </clipPath>
  </defs>
  <g id="Group_1223953" data-name="Group 1223953" transform="translate(-791.781 -1956)">
    <g id="Group_1203409" data-name="Group 1203409" transform="translate(465 -1896)">
      <g transform="matrix(1, 0, 0, 1, 326.78, 3852)" filter="url(#Rectangle_411831)">
        <g id="Rectangle_411831-2" data-name="Rectangle 411831" transform="translate(9 6)" fill="#d9aef1" stroke="#fff" stroke-width="2">
          <path d="M5,0H68a32,32,0,0,1,32,32V95a5,5,0,0,1-5,5H32A32,32,0,0,1,0,68V5A5,5,0,0,1,5,0Z" stroke="none"/>
          <path d="M5,1H68A31,31,0,0,1,99,32V95a4,4,0,0,1-4,4H32A31,31,0,0,1,1,68V5A4,4,0,0,1,5,1Z" fill="none"/>
        </g>
      </g>
      <g id="Group_1223954" data-name="Group 1223954" transform="translate(357.745 3877.422)">
        <rect id="Rectangle_425270" data-name="Rectangle 425270" width="59.943" height="39.232" transform="translate(1.044 1.044)" fill="#97e4ff"/>
        <g id="Group_1223947" data-name="Group 1223947" transform="translate(0 0)">
          <g id="Group_1223946" data-name="Group 1223946" clip-path="url(#clip-path)">
            <path id="Path_1291004" data-name="Path 1291004" d="M60.986,41.319H1.044A1.045,1.045,0,0,1,0,40.276V1.044A1.045,1.045,0,0,1,1.044,0H60.986A1.045,1.045,0,0,1,62.03,1.044V40.276a1.045,1.045,0,0,1-1.044,1.044m-58.9-2.087H59.941V2.089H2.087Z" transform="translate(0 0)" fill="#231f20"/>
            <path id="Path_1291005" data-name="Path 1291005" d="M17.873,10.864A3.768,3.768,0,1,1,14.1,7.1a3.769,3.769,0,0,1,3.769,3.769" transform="translate(4.145 2.845)" fill="#fff"/>
            <path id="Path_1291006" data-name="Path 1291006" d="M14.4,15.973a4.812,4.812,0,1,1,4.812-4.812A4.818,4.818,0,0,1,14.4,15.973m0-7.536a2.724,2.724,0,1,0,2.723,2.723A2.726,2.726,0,0,0,14.4,8.437" transform="translate(3.846 2.546)" fill="#231f20"/>
            <path id="Path_1291007" data-name="Path 1291007" d="M8.109,26.417l8.869-8.839,4.915,4L32.305,10.919l14.658,15.5Z" transform="translate(3.251 4.378)" fill="#fff"/>
            <path id="Path_1291008" data-name="Path 1291008" d="M47.262,27.759H8.407a1.043,1.043,0,0,1-.736-1.783l8.869-8.839a1.044,1.044,0,0,1,1.4-.07L22.11,20.46l9.746-9.972a1.042,1.042,0,0,1,.745-.315h.008a1.052,1.052,0,0,1,.752.328L48.019,26a1.043,1.043,0,0,1-.758,1.761M10.935,25.672h33.9L32.592,12.724,22.937,22.6a1.045,1.045,0,0,1-1.405.08l-4.183-3.4Z" transform="translate(2.953 4.079)" fill="#231f20"/>
            <path id="Path_1291009" data-name="Path 1291009" d="M60.986,46.432H1.044A1.045,1.045,0,0,1,0,45.388V29.048A1.044,1.044,0,0,1,1.044,28H60.986a1.044,1.044,0,0,1,1.044,1.044V45.388a1.045,1.045,0,0,1-1.044,1.044m-58.9-2.087H59.941V30.091H2.087Z" transform="translate(0 11.228)" fill="#231f20"/>
            <path id="Path_1291010" data-name="Path 1291010" d="M12.416,41.077c-4.356,0-7.743-4.131-7.886-4.308a1.045,1.045,0,0,1,0-1.311c.143-.177,3.53-4.308,7.886-4.308s7.743,4.131,7.885,4.308a1.042,1.042,0,0,1,0,1.311c-.141.177-3.53,4.308-7.885,4.308M6.762,36.112c1.021,1.021,3.214,2.876,5.654,2.876a7.587,7.587,0,0,0,4.367-1.744,13.031,13.031,0,0,0,1.287-1.129c-1.023-1.021-3.215-2.876-5.654-2.876a7.583,7.583,0,0,0-4.367,1.744,13.031,13.031,0,0,0-1.287,1.129" transform="translate(1.724 12.489)" fill="#231f20"/>
            <path id="Path_1291011" data-name="Path 1291011" d="M11.021,38.863a3.242,3.242,0,1,1,3.242-3.242,3.245,3.245,0,0,1-3.242,3.242m0-4.4a1.154,1.154,0,1,0,1.154,1.154,1.156,1.156,0,0,0-1.154-1.154" transform="translate(3.119 12.982)" fill="#231f20"/>
            <path id="Path_1291012" data-name="Path 1291012" d="M22.982,39.59h-5.4V38.268L19.4,36.433q.778-.813,1.017-1.111a2.424,2.424,0,0,0,.332-.511,1.093,1.093,0,0,0,.094-.447.581.581,0,0,0-.188-.458.764.764,0,0,0-.528-.168,1.443,1.443,0,0,0-.71.2,5.127,5.127,0,0,0-.811.591l-1.1-1.292a5.945,5.945,0,0,1,.965-.734,3.443,3.443,0,0,1,.852-.338,4.191,4.191,0,0,1,1.035-.118,3.117,3.117,0,0,1,1.289.255,2.015,2.015,0,0,1,.88.724,1.862,1.862,0,0,1,.312,1.055,2.72,2.72,0,0,1-.447,1.538,5.072,5.072,0,0,1-.608.755q-.378.4-1.614,1.5v.052h2.812Z" transform="translate(7.019 12.85)"/>
            <path id="Path_1291013" data-name="Path 1291013" d="M27.053,33.768a1.772,1.772,0,0,1-.422,1.188,2.406,2.406,0,0,1-1.22.719v.031q1.86.233,1.86,1.76A1.906,1.906,0,0,1,26.45,39.1a3.828,3.828,0,0,1-2.281.6,6.7,6.7,0,0,1-1.111-.087,5.814,5.814,0,0,1-1.107-.315V37.622a4.343,4.343,0,0,0,.995.368,4.079,4.079,0,0,0,.933.12,1.9,1.9,0,0,0,.964-.186.633.633,0,0,0,.3-.581.657.657,0,0,0-.158-.471,1.016,1.016,0,0,0-.509-.249,4.046,4.046,0,0,0-.915-.084h-.458v-1.51h.468q1.532,0,1.531-.783a.481.481,0,0,0-.227-.437,1.123,1.123,0,0,0-.607-.143,2.778,2.778,0,0,0-1.475.479L21.963,32.8a4.083,4.083,0,0,1,1.208-.58,5.285,5.285,0,0,1,1.416-.172,3.12,3.12,0,0,1,1.81.458,1.456,1.456,0,0,1,.656,1.261" transform="translate(8.802 12.85)"/>
            <path id="Path_1291014" data-name="Path 1291014" d="M31.686,35.883a5.012,5.012,0,0,1-.661,2.892A2.331,2.331,0,0,1,29,39.693a2.3,2.3,0,0,1-2.009-.958,4.948,4.948,0,0,1-.675-2.851,5.068,5.068,0,0,1,.66-2.908A2.321,2.321,0,0,1,29,32.049a2.3,2.3,0,0,1,2.006.964,4.99,4.99,0,0,1,.679,2.871m-3.372,0a6.341,6.341,0,0,0,.158,1.734q.156.473.528.472c.251,0,.429-.163.531-.488a6.445,6.445,0,0,0,.156-1.719,6.5,6.5,0,0,0-.157-1.732c-.106-.331-.282-.5-.53-.5s-.424.16-.528.478a6.462,6.462,0,0,0-.158,1.75" transform="translate(10.552 12.85)"/>
          </g>
        </g>
      </g>
    </g>
    <path id="Path_1260076" data-name="Path 1260076" d="M16.614.687H.856V7.046h11.25L.856,18.219,5.4,22.735,16.614,11.6V22.735h6.441V.687Z" transform="translate(799.924 2039.266)" fill="#1f1321" fill-rule="evenodd"/>
    <path id="Path_1260092" data-name="Path 1260092" d="M5.755,17.459H17.742V12.622H9.184l8.558-8.5L14.284.687,5.755,9.157V.687H.856V17.459Z" transform="translate(883.039 1961.314)" fill="#1f1321" fill-rule="evenodd"/>
  </g>
</svg>
