<svg xmlns="http://www.w3.org/2000/svg" xmlns:xlink="http://www.w3.org/1999/xlink" width="118" height="118" viewBox="0 0 118 118">
  <defs>
    <filter id="Rectangle_411831" x="0" y="0" width="118" height="118" filterUnits="userSpaceOnUse">
      <feOffset dy="3" input="SourceAlpha"/>
      <feGaussianBlur stdDeviation="3" result="blur"/>
      <feFlood flood-opacity="0.161"/>
      <feComposite operator="in" in2="blur"/>
      <feComposite in="SourceGraphic"/>
    </filter>
    <clipPath id="clip-path">
      <rect id="Rectangle_425277" data-name="Rectangle 425277" width="65.673" height="43.813" fill="none"/>
    </clipPath>
  </defs>
  <g id="Group_1223958" data-name="Group 1223958" transform="translate(-791.781 -1956)">
    <g id="Group_1203409" data-name="Group 1203409" transform="translate(465 -1896)">
      <g transform="matrix(1, 0, 0, 1, 326.78, 3852)" filter="url(#Rectangle_411831)">
        <g id="Rectangle_411831-2" data-name="Rectangle 411831" transform="translate(9 6)" fill="#d9aef1" stroke="#fff" stroke-width="2">
          <path d="M5,0H68a32,32,0,0,1,32,32V95a5,5,0,0,1-5,5H32A32,32,0,0,1,0,68V5A5,5,0,0,1,5,0Z" stroke="none"/>
          <path d="M5,1H68A31,31,0,0,1,99,32V95a4,4,0,0,1-4,4H32A31,31,0,0,1,1,68V5A4,4,0,0,1,5,1Z" fill="none"/>
        </g>
      </g>
    </g>
    <path id="Path_1260076" data-name="Path 1260076" d="M16.614.687H.856V7.046h11.25L.856,18.219,5.4,22.735,16.614,11.6V22.735h6.441V.687Z" transform="translate(799.924 2039.266)" fill="#1f1321" fill-rule="evenodd"/>
    <path id="Path_1260092" data-name="Path 1260092" d="M5.755,17.459H17.742V12.622H9.184l8.558-8.5L14.284.687,5.755,9.157V.687H.856V17.459Z" transform="translate(883.039 1961.314)" fill="#1f1321" fill-rule="evenodd"/>
    <g id="Group_1223960" data-name="Group 1223960" transform="translate(821.009 1990.093)">
      <g id="Group_1223951" data-name="Group 1223951" transform="translate(0 0)" clip-path="url(#clip-path)">
        <path id="Path_1291022" data-name="Path 1291022" d="M57.382,43.813H8.292A8.3,8.3,0,0,1,0,35.521V8.291A8.3,8.3,0,0,1,8.292,0H57.382a8.3,8.3,0,0,1,8.291,8.291v27.23a8.3,8.3,0,0,1-8.291,8.292M8.292,2.087a6.21,6.21,0,0,0-6.2,6.2v27.23a6.21,6.21,0,0,0,6.2,6.2H57.382a6.21,6.21,0,0,0,6.2-6.2V8.291a6.21,6.21,0,0,0-6.2-6.2Z" transform="translate(0 0)" fill="#231f20"/>
        <rect id="Rectangle_425274" data-name="Rectangle 425274" width="44.434" height="41.726" transform="translate(8.292 1.044)" fill="#97e4ff"/>
        <path id="Path_1291023" data-name="Path 1291023" d="M50.652,43.813H6.218a1.044,1.044,0,0,1-1.044-1.044V1.044A1.044,1.044,0,0,1,6.218,0H50.652A1.045,1.045,0,0,1,51.7,1.044V42.769a1.045,1.045,0,0,1-1.044,1.044M7.261,41.726H49.608V2.089H7.261Z" transform="translate(2.075 0)" fill="#231f20"/>
        <path id="Path_1291024" data-name="Path 1291024" d="M41.959,21.738a1.045,1.045,0,0,1-1.044-1.044v-7.4a1.044,1.044,0,0,1,2.087,0v7.4a1.045,1.045,0,0,1-1.044,1.044" transform="translate(16.405 4.912)" fill="#231f20"/>
        <rect id="Rectangle_425275" data-name="Rectangle 425275" width="6.351" height="18.658" transform="translate(20.457 12.459) rotate(-45)" fill="#fff"/>
        <path id="Path_1291025" data-name="Path 1291025" d="M28.095,24.715a1.048,1.048,0,0,1-.738-.305L14.162,11.215a1.045,1.045,0,0,1,0-1.477l4.49-4.49a1.044,1.044,0,0,1,1.477,0L33.323,18.443a1.043,1.043,0,0,1,0,1.475l-4.49,4.491a1.051,1.051,0,0,1-.738.305M16.377,10.477,28.095,22.194l3.013-3.015L19.391,7.463Z" transform="translate(5.556 1.982)" fill="#231f20"/>
        <path id="Path_1291026" data-name="Path 1291026" d="M24.019,19.6l7.39,2.9-2.9-7.39Z" transform="translate(9.631 6.056)" fill="#fff"/>
        <path id="Path_1291027" data-name="Path 1291027" d="M31.708,23.839a1.034,1.034,0,0,1-.381-.073l-7.39-2.9a1.045,1.045,0,0,1-.357-1.711l4.49-4.49a1.044,1.044,0,0,1,1.711.357l2.9,7.39a1.044,1.044,0,0,1-.972,1.425m-5.524-4.333,3.679,1.443-1.444-3.677Z" transform="translate(9.332 5.758)" fill="#231f20"/>
        <rect id="Rectangle_425276" data-name="Rectangle 425276" width="6.35" height="5.837" transform="translate(20.457 12.459) rotate(-45)" fill="#fff"/>
        <path id="Path_1291028" data-name="Path 1291028" d="M19.028,15.648a1.041,1.041,0,0,1-.738-.305l-4.127-4.127a1.045,1.045,0,0,1,0-1.477l4.49-4.49a1.044,1.044,0,0,1,1.477,0l4.127,4.127a1.042,1.042,0,0,1,0,1.477l-4.49,4.49a1.036,1.036,0,0,1-.738.305m-2.651-5.171,2.651,2.651,3.015-3.013L19.391,7.463Z" transform="translate(5.556 1.982)" fill="#231f20"/>
        <path id="Path_1291029" data-name="Path 1291029" d="M33.749,25.024H19.228a1.044,1.044,0,1,1,0-2.087H33.749a1.044,1.044,0,1,1,0,2.087" transform="translate(7.291 9.196)" fill="#231f20"/>
      </g>
    </g>
  </g>
</svg>
