<svg xmlns="http://www.w3.org/2000/svg" width="76.345" height="76.345" viewBox="0 0 76.345 76.345">
  <g id="Group_1223489" data-name="Group 1223489" transform="translate(-1021.967 -3092.655)">
    <g id="Group_1187152" data-name="Group 1187152">
      <g id="Group_1185946" data-name="Group 1185946" transform="translate(-3.07)">
        <g id="Group_1184280" data-name="Group 1184280">
          <g id="Group_1182168" data-name="Group 1182168">
            <g id="Group_1178877" data-name="Group 1178877">
              <g id="Group_1111311" data-name="Group 1111311">
                <g id="Group_1098742" data-name="Group 1098742" transform="translate(1025.482 3093.101)">
                  <g id="Rectangle_400898" data-name="Rectangle 400898" transform="translate(-0.445 -0.445)" fill="#8fe8d5" stroke="#63a194" stroke-width="1" opacity="0.859">
                    <rect width="76.345" height="76.345" rx="38.172" stroke="none"/>
                    <rect x="0.5" y="0.5" width="75.345" height="75.345" rx="37.672" fill="none"/>
                  </g>
                  <g id="Rectangle_400907" data-name="Rectangle 400907" transform="translate(-0.446 -0.445)" fill="none" stroke="#63a194" stroke-width="1">
                    <rect width="76.345" height="76.345" rx="38.172" stroke="none"/>
                    <rect x="0.5" y="0.5" width="75.345" height="75.345" rx="37.672" fill="none"/>
                  </g>
                </g>
              </g>
            </g>
          </g>
        </g>
      </g>
    </g>
    <g id="share_11940471" transform="translate(1018.999 3097.399)">
      <g id="Group_1203424" data-name="Group 1203424" transform="translate(22.713 7.5)">
        <g id="Group_1203423" data-name="Group 1203423" transform="translate(0 0)">
          <path id="Path_1260093" data-name="Path 1260093" d="M54.261,9.738V49.579H22.713V9.738A2.238,2.238,0,0,1,24.951,7.5H52.023A2.238,2.238,0,0,1,54.261,9.738Z" transform="translate(-22.713 -7.5)" fill="#f2fbff"/>
          <path id="Path_1260094" data-name="Path 1260094" d="M269.082,9.738V49.579H264.8V9.738A2.238,2.238,0,0,0,262.56,7.5h4.284A2.238,2.238,0,0,1,269.082,9.738Z" transform="translate(-237.535 -7.5)" fill="#deecf1"/>
          <path id="Path_1260095" data-name="Path 1260095" d="M109.858,10.871H100.6A3.371,3.371,0,0,1,97.231,7.5h16A3.371,3.371,0,0,1,109.858,10.871Z" transform="translate(-89.456 -7.5)" fill="#925cb4"/>
          <path id="Path_1260096" data-name="Path 1260096" d="M54.261,410.79v7.54a2.238,2.238,0,0,1-2.238,2.238H24.951a2.238,2.238,0,0,1-2.238-2.238v-7.54Z" transform="translate(-22.713 -368.711)" fill="#925cb4"/>
          <path id="Path_1260097" data-name="Path 1260097" d="M269.082,410.79v7.54a2.238,2.238,0,0,1-2.238,2.238H262.56a2.238,2.238,0,0,0,2.238-2.238v-7.54Z" transform="translate(-237.535 -368.711)" fill="#814ba2"/>
          <path id="Path_1260098" data-name="Path 1260098" d="M138,443.188h-5.1A1.906,1.906,0,0,1,131,441.282h0a1.906,1.906,0,0,1,1.906-1.906H138a1.906,1.906,0,0,1,1.906,1.906h0A1.906,1.906,0,0,1,138,443.188Z" transform="translate(-119.699 -394.315)" fill="#f2fbff"/>
        </g>
        <path id="Path_1260099" data-name="Path 1260099" d="M146.159,130.97H122.824a1.582,1.582,0,0,1-1.582-1.582V99.955a1.582,1.582,0,0,1,1.582-1.582h23.335a1.582,1.582,0,0,1,1.582,1.582v29.433A1.582,1.582,0,0,1,146.159,130.97Z" transform="translate(-110.962 -88.891)" fill="#ffe177"/>
        <path id="Path_1260100" data-name="Path 1260100" d="M324.847,99.953v29.433a1.582,1.582,0,0,1-1.582,1.582H318.98a1.581,1.581,0,0,0,1.582-1.582V99.953a1.582,1.582,0,0,0-1.582-1.583h4.285A1.582,1.582,0,0,1,324.847,99.953Z" transform="translate(-288.068 -88.889)" fill="#ffd15b"/>
        <path id="Path_1260101" data-name="Path 1260101" d="M179.353,146.577H163.189a.883.883,0,0,1-.883-.882v-10.11a.883.883,0,0,1,.883-.882h16.164a.882.882,0,0,1,.883.882v10.11A.882.882,0,0,1,179.353,146.577Z" transform="translate(-147.741 -121.43)" fill="#fe93bb"/>
        <path id="Path_1260102" data-name="Path 1260102" d="M227.437,166.9v-5.295a.538.538,0,0,1,.814-.462l4.44,2.647a.538.538,0,0,1,0,.924l-4.44,2.647A.538.538,0,0,1,227.437,166.9Z" transform="translate(-206.076 -145.046)" fill="#678d98"/>
        <circle id="Ellipse_12346" data-name="Ellipse 12346" cx="2.323" cy="2.323" r="2.323" transform="translate(35.513 23.605)" fill="#60b7ff"/>
        <circle id="Ellipse_12347" data-name="Ellipse 12347" cx="2.323" cy="2.323" r="2.323" transform="translate(44.035 17.554)" fill="#60b7ff"/>
        <circle id="Ellipse_12348" data-name="Ellipse 12348" cx="2.323" cy="2.323" r="2.323" transform="translate(44.035 29.657)" fill="#60b7ff"/>
      </g>
      <g id="Group_1203425" data-name="Group 1203425" transform="translate(22.713 7.5)">
        <path id="Path_1260103" data-name="Path 1260103" d="M22.713,30.525V9.738A2.238,2.238,0,0,1,24.951,7.5H52.023a2.238,2.238,0,0,1,2.238,2.238v7.244" transform="translate(-22.713 -7.5)" fill="none" stroke="#000" stroke-linecap="round" stroke-linejoin="round" stroke-miterlimit="10" stroke-width="1"/>
        <line id="Line_586" data-name="Line 586" y1="15.206" transform="translate(0 26.873)" fill="none" stroke="#000" stroke-linecap="round" stroke-linejoin="round" stroke-miterlimit="10" stroke-width="1"/>
        <path id="Path_1260104" data-name="Path 1260104" d="M109.858,10.871H100.6A3.371,3.371,0,0,1,97.231,7.5h16A3.371,3.371,0,0,1,109.858,10.871Z" transform="translate(-89.456 -7.5)" fill="none" stroke="#000" stroke-linecap="round" stroke-linejoin="round" stroke-miterlimit="10" stroke-width="1"/>
        <path id="Path_1260105" data-name="Path 1260105" d="M54.261,410.79v7.54a2.238,2.238,0,0,1-2.238,2.238H24.951a2.238,2.238,0,0,1-2.238-2.238v-7.54Z" transform="translate(-22.713 -368.711)" fill="none" stroke="#000" stroke-linecap="round" stroke-linejoin="round" stroke-miterlimit="10" stroke-width="1"/>
        <path id="Path_1260106" data-name="Path 1260106" d="M138,443.188h-5.1A1.906,1.906,0,0,1,131,441.282h0a1.906,1.906,0,0,1,1.906-1.906H138a1.906,1.906,0,0,1,1.906,1.906h0A1.906,1.906,0,0,1,138,443.188Z" transform="translate(-119.699 -394.315)" fill="none" stroke="#000" stroke-linecap="round" stroke-linejoin="round" stroke-miterlimit="10" stroke-width="1"/>
        <path id="Path_1260107" data-name="Path 1260107" d="M147.741,116.888v12.5a1.582,1.582,0,0,1-1.582,1.582H122.824a1.582,1.582,0,0,1-1.582-1.582V99.955a1.582,1.582,0,0,1,1.582-1.582h23.335a1.582,1.582,0,0,1,1.582,1.582v12.8" transform="translate(-110.962 -88.891)" fill="none" stroke="#000" stroke-linecap="round" stroke-linejoin="round" stroke-miterlimit="10" stroke-width="1"/>
        <path id="Path_1260108" data-name="Path 1260108" d="M177.38,134.7h1.973a.882.882,0,0,1,.883.882v10.11a.883.883,0,0,1-.883.882H163.189a.883.883,0,0,1-.883-.882v-10.11a.883.883,0,0,1,.883-.882H173.58" transform="translate(-147.741 -121.429)" fill="none" stroke="#000" stroke-linecap="round" stroke-linejoin="round" stroke-miterlimit="10" stroke-width="1"/>
        <path id="Path_1260109" data-name="Path 1260109" d="M227.437,166.9v-5.295a.538.538,0,0,1,.814-.462l4.44,2.647a.538.538,0,0,1,0,.924l-4.44,2.647A.538.538,0,0,1,227.437,166.9Z" transform="translate(-206.076 -145.046)" fill="none" stroke="#000" stroke-linecap="round" stroke-linejoin="round" stroke-miterlimit="10" stroke-width="1"/>
        <line id="Line_587" data-name="Line 587" x2="10.365" transform="translate(22.129 29.135)" fill="none" stroke="#000" stroke-linecap="round" stroke-linejoin="round" stroke-miterlimit="10" stroke-width="1"/>
        <line id="Line_588" data-name="Line 588" x2="4.024" transform="translate(14.565 29.135)" fill="none" stroke="#000" stroke-linecap="round" stroke-linejoin="round" stroke-miterlimit="10" stroke-width="1"/>
        <line id="Line_589" data-name="Line 589" x2="17.929" transform="translate(14.565 33.123)" fill="none" stroke="#000" stroke-linecap="round" stroke-linejoin="round" stroke-miterlimit="10" stroke-width="1"/>
        <line id="Line_590" data-name="Line 590" x2="12.312" transform="translate(14.565 37.111)" fill="none" stroke="#000" stroke-linecap="round" stroke-linejoin="round" stroke-miterlimit="10" stroke-width="1"/>
        <circle id="Ellipse_12349" data-name="Ellipse 12349" cx="2.323" cy="2.323" r="2.323" transform="translate(35.513 23.605)" fill="none" stroke="#000" stroke-linecap="round" stroke-linejoin="round" stroke-miterlimit="10" stroke-width="1"/>
        <circle id="Ellipse_12350" data-name="Ellipse 12350" cx="2.323" cy="2.323" r="2.323" transform="translate(44.035 17.554)" fill="none" stroke="#000" stroke-linecap="round" stroke-linejoin="round" stroke-miterlimit="10" stroke-width="1"/>
        <circle id="Ellipse_12351" data-name="Ellipse 12351" cx="2.323" cy="2.323" r="2.323" transform="translate(44.035 29.657)" fill="none" stroke="#000" stroke-linecap="round" stroke-linejoin="round" stroke-miterlimit="10" stroke-width="1"/>
        <line id="Line_591" data-name="Line 591" y1="3.362" x2="4.735" transform="translate(39.73 21.221)" fill="none" stroke="#000" stroke-linecap="round" stroke-linejoin="round" stroke-miterlimit="10" stroke-width="1"/>
        <line id="Line_592" data-name="Line 592" x2="4.735" y2="3.362" transform="translate(39.73 27.273)" fill="none" stroke="#000" stroke-linecap="round" stroke-linejoin="round" stroke-miterlimit="10" stroke-width="1"/>
      </g>
    </g>
  </g>
</svg>
