<svg xmlns="http://www.w3.org/2000/svg" width="65.027" height="65.933" viewBox="0 0 65.027 65.933">
  <g id="Group_1224633" data-name="Group 1224633" transform="translate(4385.737 7188.966)">
    <path id="Path_1295793" data-name="Path 1295793" d="M40.7,102.445h0a4.036,4.036,0,0,1-4.024-4.024V95a4.024,4.024,0,1,1,8.048,0v3.426a4.036,4.036,0,0,1-4.024,4.024" transform="translate(-4405.969 -7242.86)" fill="#f2fbff" stroke="#2a3356" stroke-width="1"/>
    <path id="Path_1295792" data-name="Path 1295792" d="M42.2,129.618H0v-4.75a15.739,15.739,0,0,1,15.692-15.692H26.506A15.739,15.739,0,0,1,42.2,124.868Z" transform="translate(-4385.237 -7253.151)" fill="#814ba2" stroke="#2a3356" stroke-linecap="round" stroke-linejoin="round" stroke-width="1" stroke-dasharray="70 6"/>
    <path id="Path_1295809" data-name="Path 1295809" d="M39.646,128.187H0V123.77a14.712,14.712,0,0,1,14.743-14.594H24.9A14.712,14.712,0,0,1,39.646,123.77Z" transform="translate(-4383.237 -7252.338)" fill="#925cb4"/>
    <path id="Path_1295795" data-name="Path 1295795" d="M37.32,45.116H19.271a4.549,4.549,0,0,1-4.535-4.535V34.765a13.559,13.559,0,0,1,27.119,0v5.816a4.549,4.549,0,0,1-4.535,4.535" transform="translate(-4393.567 -7203.42)" fill="#ffe177" stroke="#2a3356" stroke-linecap="round" stroke-linejoin="round" stroke-width="1" stroke-dasharray="40 5"/>
    <path id="Path_1295796" data-name="Path 1295796" d="M39.4,41.733V39.2a11.1,11.1,0,1,0-22.205,0v2.53a2.464,2.464,0,0,0-2.457,2.457v2.493a2.464,2.464,0,0,0,2.457,2.457v.992a11.1,11.1,0,1,0,22.205,0v-.992a2.464,2.464,0,0,0,2.457-2.457V44.189A2.464,2.464,0,0,0,39.4,41.733" transform="translate(-4393.568 -7207.317)" fill="#deecf1" stroke="#2a3356" stroke-linecap="round" stroke-linejoin="round" stroke-width="1" stroke-dasharray="90 6"/>
    <path id="Path_1295811" data-name="Path 1295811" d="M37.556,41.055v-2.4A10.445,10.445,0,0,0,27.283,28.1,10.445,10.445,0,0,0,17.01,38.651v2.4a2.311,2.311,0,0,0-2.273,2.335v2.369a2.311,2.311,0,0,0,2.273,2.335v.942A10.446,10.446,0,0,0,27.283,59.587,10.446,10.446,0,0,0,37.556,49.036v-.942a2.311,2.311,0,0,0,2.273-2.335V43.39a2.311,2.311,0,0,0-2.273-2.335" transform="translate(-4391.761 -7206.397)" fill="#f2fbff"/>
    <path id="Path_1295797" data-name="Path 1295797" d="M24.156,28.988S31.967,36.564,45.7,37.32c0,0,1.008-10.331-11.465-12.724,0,0-6.259-.578-10.079,4.392" transform="translate(-4398.893 -7205.325)" fill="#ffe177"/>
    <line id="Line_789" data-name="Line 789" x2="2.529" transform="translate(-4366.536 -7157.674)" fill="none" stroke="#2a3356" stroke-linecap="round" stroke-miterlimit="10" stroke-width="1"/>
    <rect id="Rectangle_425489" data-name="Rectangle 425489" width="21.084" height="5.039" transform="translate(-4375.813 -7131.344)" fill="#fff"/>
    <path id="Path_1295805" data-name="Path 1295805" d="M93.8,79.975a2.22,2.22,0,1,0,2.2-2.5,2.365,2.365,0,0,0-2.2,2.5" transform="translate(-4438.265 -7235.23)" fill="#fe93bb"/>
    <path id="Path_1295806" data-name="Path 1295806" d="M88.525,95.072h8.994v-.033a4.5,4.5,0,1,0-8.994,0Z" transform="translate(-4435.282 -7242.617)" fill="#fe93bb"/>
    <line id="Line_792" data-name="Line 792" y2="8.176" transform="translate(-4328.821 -7160.056)" fill="#fff"/>
    <g id="Group_1224632" data-name="Group 1224632" transform="translate(-4385.237 -7191.432)">
      <path id="Path_1295791" data-name="Path 1295791" d="M98.785,15.612a4.927,4.927,0,1,0-9.436,1.983,10.491,10.491,0,0,1,.959,4.233v.252h7.1v-.217a9.308,9.308,0,0,1,.88-4.1A4.889,4.889,0,0,0,98.785,15.612Z" transform="translate(-50.216 -1.321)" fill="#ffd15b" stroke="#2a3356" stroke-linecap="round" stroke-linejoin="round" stroke-width="1"/>
      <path id="Path_1295810" data-name="Path 1295810" d="M96.215,15.035c0-2.469-1.723-4.458-3.81-4.345-1.907.1-3.454,2.022-3.473,4.3a5.04,5.04,0,0,0,.308,1.795,10.789,10.789,0,0,1,.709,3.738v.223H95.2v-.191a9.587,9.587,0,0,1,.651-3.618A5.019,5.019,0,0,0,96.215,15.035Z" transform="translate(-48.495 -0.588)" fill="#ffe177"/>
      <line id="Line_783" data-name="Line 783" x2="7.173" transform="translate(40.056 23.286)" fill="none" stroke="#2a3356" stroke-linecap="round" stroke-linejoin="round" stroke-width="1"/>
      <line id="Line_784" data-name="Line 784" x2="5.361" transform="translate(40.962 25.89)" fill="none" stroke="#2a3356" stroke-linecap="round" stroke-linejoin="round" stroke-width="1"/>
      <line id="Line_785" data-name="Line 785" y1="3.892" transform="translate(43.593 2.966)" fill="none" stroke="#2a3356" stroke-linecap="round" stroke-linejoin="round" stroke-width="1"/>
      <line id="Line_786" data-name="Line 786" x2="2.695" y2="3.193" transform="translate(35.083 5.96)" fill="none" stroke="#2a3356" stroke-linecap="round" stroke-linejoin="round" stroke-width="1"/>
      <line id="Line_787" data-name="Line 787" x1="2.695" y2="3.193" transform="translate(49.41 5.969)" fill="none" stroke="#2a3356" stroke-linecap="round" stroke-linejoin="round" stroke-width="1"/>
      <path id="Path_1295798" data-name="Path 1295798" d="M25.126,35.6s10.919,7.214,22.6,7.954" transform="translate(-14.204 -20.123)" fill="none" stroke="#2a3356" stroke-miterlimit="10" stroke-width="1"/>
      <path id="Path_1295799" data-name="Path 1295799" d="M31.257,32.158A51.793,51.793,0,0,0,44.485,37.63" transform="translate(-17.67 -18.18)" fill="none" stroke="#2a3356" stroke-linecap="round" stroke-miterlimit="10" stroke-width="1"/>
      <path id="Path_1295800" data-name="Path 1295800" d="M24.112,58.593H32.8s-.5,4.472-4.346,4.472S24.112,58.593,24.112,58.593Z" transform="translate(-13.631 -33.124)" fill="none" stroke="#2a3356" stroke-linecap="round" stroke-linejoin="round" stroke-miterlimit="10" stroke-width="1" stroke-dasharray="21 10"/>
      <path id="Path_1295801" data-name="Path 1295801" d="M47.751,58.593h8.693s-.5,4.472-4.346,4.472S47.751,58.593,47.751,58.593Z" transform="translate(-26.995 -33.124)" fill="none" stroke="#2a3356" stroke-linecap="round" stroke-linejoin="round" stroke-miterlimit="10" stroke-width="1" stroke-dasharray="21 10"/>
      <line id="Line_788" data-name="Line 788" x2="7.496" transform="translate(16.925 25.469)" fill="none" stroke="#2a3356" stroke-linecap="round" stroke-miterlimit="10" stroke-width="1" stroke-dasharray="21 10"/>
      <path id="Path_1295802" data-name="Path 1295802" d="M44.615,84.62a4.851,4.851,0,0,1-8.756,0" transform="translate(-20.272 -47.837)" fill="none" stroke="#2a3356" stroke-linecap="round" stroke-miterlimit="10" stroke-width="1"/>
      <path id="Path_1295803" data-name="Path 1295803" d="M27.373,53.31a5.138,5.138,0,0,1,5.858,0" transform="translate(-15.475 -29.63)" fill="none" stroke="#2a3356" stroke-linecap="round" stroke-miterlimit="10" stroke-width="1"/>
      <path id="Path_1295804" data-name="Path 1295804" d="M50.168,34.727a20.381,20.381,0,0,0,7.642,2.626" transform="translate(-28.361 -19.632)" fill="none" stroke="#2a3356" stroke-linecap="round" stroke-miterlimit="10" stroke-width="1"/>
      <line id="Line_790" data-name="Line 790" y1="7.433" transform="translate(4.847 60.088)" fill="none" stroke="#2a3356" stroke-miterlimit="10" stroke-width="1"/>
      <line id="Line_791" data-name="Line 791" y1="7.433" transform="translate(35.083 60.088)" fill="none" stroke="#2a3356" stroke-miterlimit="10" stroke-width="1"/>
      <ellipse id="Ellipse_12993" data-name="Ellipse 12993" cx="2.203" cy="2.499" rx="2.203" ry="2.499" transform="translate(40.774 33.678)" fill="none" stroke="#2a3356" stroke-linejoin="round" stroke-width="1"/>
      <path id="Path_1295807" data-name="Path 1295807" d="M88.525,95.072h8.994v-.033a4.5,4.5,0,1,0-8.994,0Z" transform="translate(-50.045 -51.185)" fill="none" stroke="#2a3356" stroke-linejoin="round" stroke-width="1"/>
      <circle id="Ellipse_12994" data-name="Ellipse 12994" cx="7.894" cy="7.894" r="7.894" transform="translate(35.083 31.623)" fill="none" stroke="#2a3356" stroke-linejoin="round" stroke-width="1"/>
      <path id="Path_1295808" data-name="Path 1295808" d="M117.032,74.075l7.312.023a3.764,3.764,0,0,0,3.776-3.763V61.129" transform="translate(-66.16 -34.557)" fill="none" stroke="#2a3356" stroke-miterlimit="10" stroke-width="1"/>
      <line id="Line_793" data-name="Line 793" y2="8.176" transform="translate(56.416 31.376)" fill="none" stroke="#2a3356" stroke-miterlimit="10" stroke-width="1"/>
      <circle id="Ellipse_12995" data-name="Ellipse 12995" cx="2.067" cy="2.067" r="2.067" transform="translate(59.893 22.992)" fill="none" stroke="#2a3356" stroke-miterlimit="10" stroke-width="1"/>
      <circle id="Ellipse_12996" data-name="Ellipse 12996" cx="2.067" cy="2.067" r="2.067" transform="translate(54.349 27.727)" fill="none" stroke="#2a3356" stroke-miterlimit="10" stroke-width="1"/>
    </g>
  </g>
</svg>
