<svg xmlns="http://www.w3.org/2000/svg" xmlns:xlink="http://www.w3.org/1999/xlink" width="118" height="118" viewBox="0 0 118 118">
  <defs>
    <filter id="Rectangle_411831" x="0" y="0" width="118" height="118" filterUnits="userSpaceOnUse">
      <feOffset dy="3" input="SourceAlpha"/>
      <feGaussianBlur stdDeviation="3" result="blur"/>
      <feFlood flood-opacity="0.161"/>
      <feComposite operator="in" in2="blur"/>
      <feComposite in="SourceGraphic"/>
    </filter>
    <clipPath id="clip-path">
      <rect id="Rectangle_425286" data-name="Rectangle 425286" width="56.396" height="49.521" fill="none" stroke="#000" stroke-width="1"/>
    </clipPath>
  </defs>
  <g id="Group_1223990" data-name="Group 1223990" transform="translate(-791.781 -1956)">
    <g id="Group_1203409" data-name="Group 1203409" transform="translate(465 -1896)">
      <g transform="matrix(1, 0, 0, 1, 326.78, 3852)" filter="url(#Rectangle_411831)">
        <g id="Rectangle_411831-2" data-name="Rectangle 411831" transform="translate(9 6)" fill="#d9aef1" stroke="#fff" stroke-width="2">
          <path d="M5,0H68a32,32,0,0,1,32,32V95a5,5,0,0,1-5,5H32A32,32,0,0,1,0,68V5A5,5,0,0,1,5,0Z" stroke="none"/>
          <path d="M5,1H68A31,31,0,0,1,99,32V95a4,4,0,0,1-4,4H32A31,31,0,0,1,1,68V5A4,4,0,0,1,5,1Z" fill="none"/>
        </g>
      </g>
      <g id="Group_1223991" data-name="Group 1223991" transform="translate(357.583 3881.045)">
        <path id="Path_1291093" data-name="Path 1291093" d="M3.844,2.63V25.617L15.768,14.339l8.057,7.089L36.071,10.364,52.185,25.617V2.63Z" transform="translate(0.238 0.163)" fill="#ecf0f1" stroke="#000" stroke-width="1"/>
        <rect id="Rectangle_425284" data-name="Rectangle 425284" width="48.339" height="6.553" transform="translate(4.083 25.674)" fill="#70993f" stroke="#000" stroke-width="1"/>
        <g id="Group_1223973" data-name="Group 1223973" transform="translate(0 0)">
          <g id="Group_1223972" data-name="Group 1223972" clip-path="url(#clip-path)">
            <path id="Path_1291094" data-name="Path 1291094" d="M32.446,0a2.658,2.658,0,0,1,2.686,2.685,3.09,3.09,0,0,1-.752,1.935,2.593,2.593,0,0,1-1.934.752H21.7a2.661,2.661,0,0,1-2.686-2.687A3.085,3.085,0,0,1,19.771.752,2.433,2.433,0,0,1,21.7,0Z" transform="translate(1.177 0)" fill="#3c3b3d" stroke="#000" stroke-width="1"/>
            <path id="Path_1291095" data-name="Path 1291095" d="M22.273,8.9a2.04,2.04,0,0,1,2.041,2.041,1.949,1.949,0,0,1-2.041,1.934,2.039,2.039,0,0,1-2.041-2.041A1.949,1.949,0,0,1,22.273,8.9" transform="translate(1.253 0.551)" fill="#ffd24d" stroke="#000" stroke-width="1"/>
            <path id="Path_1291096" data-name="Path 1291096" d="M52.184,25.072H3.844L15.768,13.685l8.057,7.2L36.071,9.711Z" transform="translate(0.238 0.601)" fill="#80af52" stroke="#000" stroke-width="1"/>
            <path id="Path_1291097" data-name="Path 1291097" d="M44.627,10.278H40.545a1.4,1.4,0,1,1,0-2.793h4.082a1.422,1.422,0,0,1,1.4,1.4,1.5,1.5,0,0,1-1.4,1.4" transform="translate(2.424 0.464)" fill="#bec3c7" stroke="#000" stroke-width="1"/>
            <path id="Path_1291098" data-name="Path 1291098" d="M49.685,12.645H45.6a1.4,1.4,0,1,0,0,2.793h4.082V12.645Z" transform="translate(2.737 0.783)" fill="#bec3c7" stroke="#000" stroke-width="1"/>
            <path id="Path_1291099" data-name="Path 1291099" d="M11.907,7.668a1.422,1.422,0,0,0-1.4-1.4H3.743V9.064h6.768a1.421,1.421,0,0,0,1.4-1.4" transform="translate(0.232 0.389)" fill="#bec3c7" stroke="#000" stroke-width="1"/>
            <path id="Path_1291100" data-name="Path 1291100" d="M10.279,14.123h-1.4a1.4,1.4,0,0,1,0-2.794h1.4a1.4,1.4,0,0,1,0,2.794" transform="translate(0.463 0.702)" fill="#bec3c7" stroke="#000" stroke-width="1"/>
            <path id="Path_1291101" data-name="Path 1291101" d="M24.94,35.2,15.487,47.235H10.116L16.883,35.2Z" transform="translate(0.626 2.18)" fill="#2d2c2e" stroke="#000" stroke-width="1"/>
            <path id="Path_1291102" data-name="Path 1291102" d="M38.4,35.2l6.768,12.031H39.8L30.348,35.2Z" transform="translate(1.879 2.18)" fill="#2d2c2e" stroke="#000" stroke-width="1"/>
            <rect id="Rectangle_425285" data-name="Rectangle 425285" width="6.768" height="12.139" transform="translate(25.567 37.382)" fill="#3c3b3d" stroke="#000" stroke-width="1"/>
            <path id="Path_1291103" data-name="Path 1291103" d="M53.712,30.246A2.659,2.659,0,0,1,56.4,32.932a3.087,3.087,0,0,1-.752,1.934,2.44,2.44,0,0,1-1.934.752H2.686A2.66,2.66,0,0,1,0,32.932,3.091,3.091,0,0,1,.752,31a2.589,2.589,0,0,1,1.934-.752H53.712Z" transform="translate(0 1.873)" fill="#60534a" stroke="#000" stroke-width="1"/>
          </g>
        </g>
      </g>
    </g>
    <path id="Path_1260076" data-name="Path 1260076" d="M16.614.687H.856V7.046h11.25L.856,18.219,5.4,22.735,16.614,11.6V22.735h6.441V.687Z" transform="translate(799.924 2039.266)" fill="#1f1321" fill-rule="evenodd"/>
    <path id="Path_1260092" data-name="Path 1260092" d="M5.755,17.459H17.742V12.622H9.184l8.558-8.5L14.284.687,5.755,9.157V.687H.856V17.459Z" transform="translate(883.039 1961.314)" fill="#1f1321" fill-rule="evenodd"/>
  </g>
</svg>
