<svg xmlns="http://www.w3.org/2000/svg" xmlns:xlink="http://www.w3.org/1999/xlink" width="118" height="118" viewBox="0 0 118 118">
  <defs>
    <filter id="Rectangle_411831" x="0" y="0" width="118" height="118" filterUnits="userSpaceOnUse">
      <feOffset dy="3" input="SourceAlpha"/>
      <feGaussianBlur stdDeviation="3" result="blur"/>
      <feFlood flood-opacity="0.161"/>
      <feComposite operator="in" in2="blur"/>
      <feComposite in="SourceGraphic"/>
    </filter>
  </defs>
  <g id="Group_1223980" data-name="Group 1223980" transform="translate(-791.781 -1956)">
    <g id="Group_1203409" data-name="Group 1203409" transform="translate(465 -1896)">
      <g transform="matrix(1, 0, 0, 1, 326.78, 3852)" filter="url(#Rectangle_411831)">
        <g id="Rectangle_411831-2" data-name="Rectangle 411831" transform="translate(9 6)" fill="#d9aef1" stroke="#fff" stroke-width="2">
          <path d="M5,0H68a32,32,0,0,1,32,32V95a5,5,0,0,1-5,5H32A32,32,0,0,1,0,68V5A5,5,0,0,1,5,0Z" stroke="none"/>
          <path d="M5,1H68A31,31,0,0,1,99,32V95a4,4,0,0,1-4,4H32A31,31,0,0,1,1,68V5A4,4,0,0,1,5,1Z" fill="none"/>
        </g>
      </g>
      <g id="Group_1223981" data-name="Group 1223981" transform="translate(2739.781 12849.897)">
        <path id="Path_1291116" data-name="Path 1291116" d="M53.765,45.171a5.917,5.917,0,0,1,1.718,4.3,6.016,6.016,0,0,1-10.312,4.3L31.743,40.337a21.5,21.5,0,1,1,8.594-8.594ZM50.22,50.219a1.747,1.747,0,1,0-2.471,0,1.633,1.633,0,0,0,2.471,0" transform="translate(-2379.204 -8969.665)" fill="#57606f" stroke="#000" stroke-width="1"/>
        <path id="Path_1291117" data-name="Path 1291117" d="M21.065,7.637A13.428,13.428,0,1,1,7.637,21.065,13.429,13.429,0,0,1,21.065,7.637" transform="translate(-2378.731 -8969.192)" fill="#d8f2f1" stroke="#000" stroke-width="1"/>
        <path id="Path_1291118" data-name="Path 1291118" d="M26.388,16.432A1.312,1.312,0,0,1,25.421,16a6.745,6.745,0,0,0-9.454,0,1.367,1.367,0,1,1-1.933-1.935,9.466,9.466,0,0,1,13.32,0,1.363,1.363,0,0,1,0,1.935,1.311,1.311,0,0,1-.966.429" transform="translate(-2378.36 -8968.964)" fill="#b2dbd8" stroke="#000" stroke-width="1"/>
      </g>
    </g>
    <path id="Path_1260076" data-name="Path 1260076" d="M16.614.687H.856V7.046h11.25L.856,18.219,5.4,22.735,16.614,11.6V22.735h6.441V.687Z" transform="translate(799.924 2039.266)" fill="#1f1321" fill-rule="evenodd"/>
    <path id="Path_1260092" data-name="Path 1260092" d="M5.755,17.459H17.742V12.622H9.184l8.558-8.5L14.284.687,5.755,9.157V.687H.856V17.459Z" transform="translate(883.039 1961.314)" fill="#1f1321" fill-rule="evenodd"/>
  </g>
</svg>
