<svg xmlns="http://www.w3.org/2000/svg" xmlns:xlink="http://www.w3.org/1999/xlink" width="118" height="118" viewBox="0 0 118 118">
  <defs>
    <filter id="Rectangle_411831" x="0" y="0" width="118" height="118" filterUnits="userSpaceOnUse">
      <feOffset dy="3" input="SourceAlpha"/>
      <feGaussianBlur stdDeviation="3" result="blur"/>
      <feFlood flood-opacity="0.161"/>
      <feComposite operator="in" in2="blur"/>
      <feComposite in="SourceGraphic"/>
    </filter>
  </defs>
  <g id="Group_1223996" data-name="Group 1223996" transform="translate(-791.781 -1956)">
    <g id="Group_1203409" data-name="Group 1203409" transform="translate(465 -1896)">
      <g transform="matrix(1, 0, 0, 1, 326.78, 3852)" filter="url(#Rectangle_411831)">
        <g id="Rectangle_411831-2" data-name="Rectangle 411831" transform="translate(9 6)" fill="#d9aef1" stroke="#fff" stroke-width="2">
          <path d="M5,0H68a32,32,0,0,1,32,32V95a5,5,0,0,1-5,5H32A32,32,0,0,1,0,68V5A5,5,0,0,1,5,0Z" stroke="none"/>
          <path d="M5,1H68A31,31,0,0,1,99,32V95a4,4,0,0,1-4,4H32A31,31,0,0,1,1,68V5A4,4,0,0,1,5,1Z" fill="none"/>
        </g>
      </g>
      <g id="Group_1224030" data-name="Group 1224030" transform="translate(-2143.559 7896.367)">
        <path id="Path_1291219" data-name="Path 1291219" d="M0,128.723V163.8a3.288,3.288,0,0,0,3.289,3.288H50.426a3.288,3.288,0,0,0,3.289-3.288V128.723c.144-2.211-51.19-2.077-53.715,0" transform="translate(2503 -4131.296)" fill="#7cc8f0" stroke="#000" stroke-linejoin="round" stroke-width="2"/>
        <path id="Path_1291220" data-name="Path 1291220" d="M107.591,411.178a1.1,1.1,0,0,1-1.1-1.1v-3.289a1.1,1.1,0,0,1,2.193,0v3.289a1.1,1.1,0,0,1-1.1,1.1" transform="translate(2408.015 -4379.768)" fill="#e2e0e1"/>
        <path id="Path_1291221" data-name="Path 1291221" d="M107.591,204.488a1.1,1.1,0,0,1-1.1-1.1V183.66a1.1,1.1,0,1,1,2.193,0v19.732a1.1,1.1,0,0,1-1.1,1.1" transform="translate(2408.015 -4180.75)" fill="#e2e0e1"/>
        <path id="Path_1291222" data-name="Path 1291222" d="M239.444,275.485a1.1,1.1,0,0,1-1.1-1.1V254.657a1.1,1.1,0,1,1,2.192,0v19.732a1.1,1.1,0,0,1-1.1,1.1" transform="translate(2290.413 -4244.074)" fill="#e2e0e1"/>
        <path id="Path_1291223" data-name="Path 1291223" d="M239.444,188.045a1.1,1.1,0,0,1-1.1-1.1V183.66a1.1,1.1,0,1,1,2.192,0v3.289a1.1,1.1,0,0,1-1.1,1.1" transform="translate(2290.413 -4180.75)" fill="#e2e0e1"/>
        <path id="Path_1291224" data-name="Path 1291224" d="M371.3,338.809a1.1,1.1,0,0,1-1.1-1.1V325.654a1.1,1.1,0,1,1,2.192,0v12.058a1.1,1.1,0,0,1-1.1,1.1" transform="translate(2172.813 -4307.398)" fill="#e2e0e1"/>
        <path id="Path_1291225" data-name="Path 1291225" d="M371.3,195.719a1.1,1.1,0,0,1-1.1-1.1V183.66a1.1,1.1,0,1,1,2.192,0v10.962a1.1,1.1,0,0,1-1.1,1.1" transform="translate(2172.813 -4180.75)" fill="#e2e0e1"/>
        <path id="Path_1291226" data-name="Path 1291226" d="M342.374,294.131a2.192,2.192,0,1,1,0,4.385h-5.481a2.192,2.192,0,0,1,0-4.385h5.481Z" transform="translate(2204.475 -4280.259)" fill="#fa382e" stroke="#000" stroke-linejoin="round" stroke-width="2"/>
        <path id="Path_1291227" data-name="Path 1291227" d="M210.522,223.132a2.193,2.193,0,1,1,0,4.385h-5.481a2.193,2.193,0,0,1,0-4.385Z" transform="translate(2322.075 -4216.934)" fill="#b8dc38" stroke="#000" stroke-linejoin="round" stroke-width="2"/>
        <path id="Path_1291228" data-name="Path 1291228" d="M78.671,375.27a2.193,2.193,0,0,1,0,4.385H73.19a2.193,2.193,0,0,1,0-4.385Z" transform="translate(2439.676 -4352.629)" fill="#ffdc87" stroke="#000" stroke-linejoin="round" stroke-width="2"/>
        <path id="Path_1291229" data-name="Path 1291229" d="M50.427,0H3.53A3.415,3.415,0,0,0,0,3.29V15.348H53.715V3.29A3.288,3.288,0,0,0,50.427,0" transform="translate(2502.999 -4017.92)" fill="#00516a" stroke="#000" stroke-linejoin="round" stroke-width="2"/>
        <path id="Path_1291230" data-name="Path 1291230" d="M437.221,60.855a1.1,1.1,0,1,1-1.1,1.1,1.1,1.1,0,0,1,1.1-1.1" transform="translate(2114.012 -4072.197)" fill="#e2e0e1"/>
        <path id="Path_1291231" data-name="Path 1291231" d="M165.567,40.569a3.289,3.289,0,1,1-3.289,3.289,3.289,3.289,0,0,1,3.289-3.289" transform="translate(2358.261 -4054.103)" fill="#fa382e" stroke="#000" stroke-linejoin="round" stroke-width="2"/>
        <path id="Path_1291232" data-name="Path 1291232" d="M54,40.569a3.289,3.289,0,1,1-3.289,3.289A3.289,3.289,0,0,1,54,40.569" transform="translate(2457.769 -4054.103)" fill="#b8dc38" stroke="#000" stroke-linejoin="round" stroke-width="2"/>
      </g>
    </g>
    <path id="Path_1260076" data-name="Path 1260076" d="M16.614.687H.856V7.046h11.25L.856,18.219,5.4,22.735,16.614,11.6V22.735h6.441V.687Z" transform="translate(799.924 2039.266)" fill="#1f1321" fill-rule="evenodd"/>
    <path id="Path_1260092" data-name="Path 1260092" d="M5.755,17.459H17.742V12.622H9.184l8.558-8.5L14.284.687,5.755,9.157V.687H.856V17.459Z" transform="translate(883.039 1961.314)" fill="#1f1321" fill-rule="evenodd"/>
  </g>
</svg>
