<svg xmlns="http://www.w3.org/2000/svg" xmlns:xlink="http://www.w3.org/1999/xlink" width="118" height="118" viewBox="0 0 118 118">
  <defs>
    <filter id="Rectangle_411831" x="0" y="0" width="118" height="118" filterUnits="userSpaceOnUse">
      <feOffset dy="3" input="SourceAlpha"/>
      <feGaussianBlur stdDeviation="3" result="blur"/>
      <feFlood flood-opacity="0.161"/>
      <feComposite operator="in" in2="blur"/>
      <feComposite in="SourceGraphic"/>
    </filter>
  </defs>
  <g id="Group_1224016" data-name="Group 1224016" transform="translate(-791.781 -1956)">
    <g id="Group_1203409" data-name="Group 1203409" transform="translate(465 -1896)">
      <g transform="matrix(1, 0, 0, 1, 326.78, 3852)" filter="url(#Rectangle_411831)">
        <g id="Rectangle_411831-2" data-name="Rectangle 411831" transform="translate(9 6)" fill="#d9aef1" stroke="#fff" stroke-width="2">
          <path d="M5,0H68a32,32,0,0,1,32,32V95a5,5,0,0,1-5,5H32A32,32,0,0,1,0,68V5A5,5,0,0,1,5,0Z" stroke="none"/>
          <path d="M5,1H68A31,31,0,0,1,99,32V95a4,4,0,0,1-4,4H32A31,31,0,0,1,1,68V5A4,4,0,0,1,5,1Z" fill="none"/>
        </g>
      </g>
      <g id="Group_1224019" data-name="Group 1224019" transform="translate(-2113.366 6806.918)">
        <path id="Path_1291179" data-name="Path 1291179" d="M59.8,0H4.5c-.067,0-.134,0-.2.005h0l-.022,0-.049,0c-.059,0-.118.008-.176.014L3.992.029c-.055.006-.111.013-.165.021l-.061.01C3.712.07,3.66.079,3.608.089L3.544.1c-.05.011-.1.022-.151.035L3.327.156C3.278.17,3.23.183,3.182.2L3.115.22c-.047.015-.093.031-.139.047L2.908.293,2.774.346,2.706.375,2.576.434,2.509.467,2.384.531,2.317.568,2.2.638,2.132.678,2.016.752,1.952.8,1.841.875,1.778.922l-.106.084-.061.05-.1.088L1.45,1.2c-.033.03-.065.061-.1.092L1.3,1.348c-.031.031-.061.063-.091.1L1.149,1.5c-.029.033-.058.066-.086.1l-.053.064c-.027.034-.054.068-.081.1l-.051.067c-.025.035-.05.07-.075.105l-.049.07c-.024.036-.047.072-.069.108L.64,2.193C.618,2.23.6,2.267.576,2.3L.533,2.38c-.02.037-.039.075-.058.113s-.027.053-.04.08S.4,2.65.383,2.688s-.025.054-.036.082S.316,2.848.3,2.888s-.022.056-.033.085-.027.079-.041.119S.208,3.15.2,3.179.175,3.26.164,3.3.147,3.36.139,3.39s-.02.083-.029.125S.1,3.574.09,3.6s-.016.086-.023.129-.011.059-.016.089c-.007.045-.012.091-.017.136,0,.029-.008.057-.011.086-.005.05-.008.1-.012.151,0,.024,0,.049-.005.074Q0,4.382,0,4.5V33.491H64.3V4.5A4.509,4.509,0,0,0,59.8,0" transform="translate(2467 -2928.97)" fill="#c7e1f7" stroke="#000" stroke-width="2"/>
        <path id="Path_1291180" data-name="Path 1291180" d="M152.666,389.775h0l-1.607-3.445h-23.83l-2.849,6.1h29.526Z" transform="translate(2360.005 -3261.301)" fill="#37393b" stroke="#000" stroke-width="2"/>
        <path id="Path_1291181" data-name="Path 1291181" d="M212.741,52.722H210.03V66.056h-5.562V52.722h-2.711l5.492-7.521Z" transform="translate(2293.444 -2967.852)" fill="#ffbf07" stroke="#000" stroke-width="2"/>
        <path id="Path_1291182" data-name="Path 1291182" d="M136.12,99.01v13.334h5.562V99.01Z" transform="translate(2349.906 -3014.141)" fill="#fda738" stroke="#000" stroke-width="2"/>
        <rect id="Rectangle_425302" data-name="Rectangle 425302" width="5.563" height="9.3" transform="translate(2474.14 -2911.096)" fill="#da1d1c" stroke="#000" stroke-width="2"/>
        <path id="Path_1291183" data-name="Path 1291183" d="M322.468,50.714H309.679a1.258,1.258,0,1,1,0-2.516h12.789a1.258,1.258,0,1,1,0,2.516" transform="translate(2201.688 -2970.431)" fill="#fff" stroke="#000" stroke-width="2"/>
        <path id="Path_1291184" data-name="Path 1291184" d="M322.468,92.453H309.679a1.258,1.258,0,1,1,0-2.516h12.789a1.258,1.258,0,1,1,0,2.516" transform="translate(2201.688 -3006.336)" fill="#fff" stroke="#000" stroke-width="2"/>
        <path id="Path_1291185" data-name="Path 1291185" d="M322.468,134.192H309.679a1.258,1.258,0,1,1,0-2.516h12.789a1.258,1.258,0,1,1,0,2.516" transform="translate(2201.688 -3042.241)" fill="#fff" stroke="#000" stroke-width="2"/>
        <path id="Path_1291186" data-name="Path 1291186" d="M322.468,175.931H309.679a1.258,1.258,0,1,1,0-2.516h12.789a1.258,1.258,0,1,1,0,2.516" transform="translate(2201.688 -3078.146)" fill="#fff" stroke="#000" stroke-width="2"/>
        <path id="Path_1291187" data-name="Path 1291187" d="M0,239.61v4.8a4.509,4.509,0,0,0,4.5,4.5H59.8a4.509,4.509,0,0,0,4.5-4.5v-4.8Z" transform="translate(2467 -3135.089)" fill="#cccacb" stroke="#000" stroke-width="2"/>
        <path id="Path_1291188" data-name="Path 1291188" d="M187.864,306.09H186.04v11.215h12.289V306.09Z" transform="translate(2306.963 -3192.276)" fill="#4c595f" stroke="#000" stroke-width="2"/>
        <path id="Path_1291189" data-name="Path 1291189" d="M204.878,266.367h-6.744a1.258,1.258,0,1,1,0-2.516h6.744a1.258,1.258,0,1,1,0,2.516" transform="translate(2297.642 -3155.942)" fill="#43494c" stroke="#000" stroke-width="2"/>
      </g>
    </g>
    <path id="Path_1260076" data-name="Path 1260076" d="M16.614.687H.856V7.046h11.25L.856,18.219,5.4,22.735,16.614,11.6V22.735h6.441V.687Z" transform="translate(799.924 2039.266)" fill="#1f1321" fill-rule="evenodd"/>
    <path id="Path_1260092" data-name="Path 1260092" d="M5.755,17.459H17.742V12.622H9.184l8.558-8.5L14.284.687,5.755,9.157V.687H.856V17.459Z" transform="translate(883.039 1961.314)" fill="#1f1321" fill-rule="evenodd"/>
  </g>
</svg>
