<svg xmlns="http://www.w3.org/2000/svg" xmlns:xlink="http://www.w3.org/1999/xlink" width="118" height="118" viewBox="0 0 118 118">
  <defs>
    <filter id="Rectangle_411831" x="0" y="0" width="118" height="118" filterUnits="userSpaceOnUse">
      <feOffset dy="3" input="SourceAlpha"/>
      <feGaussianBlur stdDeviation="3" result="blur"/>
      <feFlood flood-opacity="0.161"/>
      <feComposite operator="in" in2="blur"/>
      <feComposite in="SourceGraphic"/>
    </filter>
    <clipPath id="clip-path">
      <rect id="Rectangle_425269" data-name="Rectangle 425269" width="72.994" height="59.956" fill="none"/>
    </clipPath>
  </defs>
  <g id="Group_1223955" data-name="Group 1223955" transform="translate(-791.781 -1956)">
    <g id="Group_1203409" data-name="Group 1203409" transform="translate(465 -1896)">
      <g transform="matrix(1, 0, 0, 1, 326.78, 3852)" filter="url(#Rectangle_411831)">
        <g id="Rectangle_411831-2" data-name="Rectangle 411831" transform="translate(9 6)" fill="#d9aef1" stroke="#fff" stroke-width="2">
          <path d="M5,0H68a32,32,0,0,1,32,32V95a5,5,0,0,1-5,5H32A32,32,0,0,1,0,68V5A5,5,0,0,1,5,0Z" stroke="none"/>
          <path d="M5,1H68A31,31,0,0,1,99,32V95a4,4,0,0,1-4,4H32A31,31,0,0,1,1,68V5A4,4,0,0,1,5,1Z" fill="none"/>
        </g>
      </g>
      <g id="Group_1223956" data-name="Group 1223956" transform="translate(354.287 3878.022)">
        <rect id="Rectangle_425267" data-name="Rectangle 425267" width="64.412" height="49.184" transform="translate(1.044 1.045)" fill="#97e4ff"/>
        <g id="Group_1223944" data-name="Group 1223944" transform="translate(0 0)">
          <g id="Group_1223943" data-name="Group 1223943" clip-path="url(#clip-path)">
            <path id="Path_1290995" data-name="Path 1290995" d="M65.457,51.273H1.044A1.045,1.045,0,0,1,0,50.229V1.044A1.045,1.045,0,0,1,1.044,0H65.457A1.045,1.045,0,0,1,66.5,1.044V50.229a1.045,1.045,0,0,1-1.044,1.044M2.087,49.184H64.412V2.087H2.087Z" transform="translate(0 0)" fill="#231f20"/>
            <rect id="Rectangle_425268" data-name="Rectangle 425268" width="64.412" height="10.993" transform="translate(1.045 1.045)" fill="#fff"/>
            <path id="Path_1290996" data-name="Path 1290996" d="M65.457,13.082H1.044A1.045,1.045,0,0,1,0,12.038V1.044A1.045,1.045,0,0,1,1.044,0H65.457A1.045,1.045,0,0,1,66.5,1.044V12.038a1.045,1.045,0,0,1-1.044,1.044M2.087,10.993H64.412V2.087H2.087Z" transform="translate(0 0)" fill="#231f20"/>
            <path id="Path_1290997" data-name="Path 1290997" d="M17.92,13.928,37.113,25.01,17.92,36.09Z" transform="translate(7.185 5.585)" fill="#fff"/>
            <path id="Path_1290998" data-name="Path 1290998" d="M18.219,37.433a1.043,1.043,0,0,1-1.044-1.044V14.227a1.043,1.043,0,0,1,1.565-.9L37.933,24.4a1.043,1.043,0,0,1,0,1.807L18.74,37.293a1.036,1.036,0,0,1-.521.14m1.044-21.4V34.581l16.061-9.273Z" transform="translate(6.886 5.286)" fill="#231f20"/>
            <path id="Path_1290999" data-name="Path 1290999" d="M7.6,5.116A1.563,1.563,0,1,1,6.035,3.553,1.564,1.564,0,0,1,7.6,5.116" transform="translate(1.793 1.425)" fill="#231f20"/>
            <path id="Path_1291000" data-name="Path 1291000" d="M11.213,5.116A1.563,1.563,0,1,1,9.649,3.553a1.564,1.564,0,0,1,1.563,1.563" transform="translate(3.242 1.425)" fill="#231f20"/>
            <path id="Path_1291001" data-name="Path 1291001" d="M14.827,5.116a1.563,1.563,0,1,1-1.563-1.563,1.564,1.564,0,0,1,1.563,1.563" transform="translate(4.691 1.425)" fill="#231f20"/>
            <path id="Path_1291002" data-name="Path 1291002" d="M47.324,27.364l2.1,6.467a.786.786,0,0,0,.745.542h6.8a.784.784,0,0,1,.462,1.418l-5.5,4a.784.784,0,0,0-.284.877l2.1,6.467a.784.784,0,0,1-1.208.876l-5.5-4a.782.782,0,0,0-.922,0l-5.5,4a.784.784,0,0,1-1.206-.876l2.1-6.467a.782.782,0,0,0-.286-.877l-5.5-4a.784.784,0,0,1,.461-1.418h6.8a.786.786,0,0,0,.747-.542l2.1-6.467a.784.784,0,0,1,1.492,0" transform="translate(14.194 10.754)" fill="#fff"/>
            <path id="Path_1291003" data-name="Path 1291003" d="M40.453,49.5a1.829,1.829,0,0,1-1.737-2.393l2.043-6.287L35.41,36.933a1.828,1.828,0,0,1,1.075-3.306H43.1l2.043-6.287a1.827,1.827,0,0,1,3.476,0l2.043,6.287H57.27a1.828,1.828,0,0,1,1.073,3.306L52.994,40.82l2.043,6.287a1.828,1.828,0,0,1-2.813,2.043l-5.346-3.885L41.529,49.15a1.824,1.824,0,0,1-1.076.35M37.285,35.714l4.853,3.526a1.829,1.829,0,0,1,.665,2.044l-1.856,5.706L45.8,43.465a1.82,1.82,0,0,1,2.149,0l4.854,3.526L50.95,41.285a1.825,1.825,0,0,1,.665-2.044l4.854-3.526h-6a1.824,1.824,0,0,1-1.74-1.264l-1.852-5.706-1.855,5.706a1.822,1.822,0,0,1-1.739,1.264Z" transform="translate(13.896 10.455)" fill="#231f20"/>
          </g>
        </g>
      </g>
    </g>
    <path id="Path_1260076" data-name="Path 1260076" d="M16.614.687H.856V7.046h11.25L.856,18.219,5.4,22.735,16.614,11.6V22.735h6.441V.687Z" transform="translate(799.924 2039.266)" fill="#1f1321" fill-rule="evenodd"/>
    <path id="Path_1260092" data-name="Path 1260092" d="M5.755,17.459H17.742V12.622H9.184l8.558-8.5L14.284.687,5.755,9.157V.687H.856V17.459Z" transform="translate(883.039 1961.314)" fill="#1f1321" fill-rule="evenodd"/>
  </g>
</svg>
