<svg xmlns="http://www.w3.org/2000/svg" width="64.742" height="68.899" viewBox="0 0 64.742 68.899">
  <g id="share_11940471" transform="translate(-22.213 -7)">
    <g id="Group_1203424" data-name="Group 1203424" transform="translate(22.713 7.5)">
      <g id="Group_1203423" data-name="Group 1203423" transform="translate(0 0)">
        <path id="Path_1260093" data-name="Path 1260093" d="M64.021,10.43V62.6H22.713V10.43a2.931,2.931,0,0,1,2.93-2.93H61.09A2.931,2.931,0,0,1,64.021,10.43Z" transform="translate(-22.713 -7.5)" fill="#f2fbff"/>
        <path id="Path_1260094" data-name="Path 1260094" d="M271.1,10.43V62.6h-5.61V10.43a2.931,2.931,0,0,0-2.93-2.93h5.61A2.931,2.931,0,0,1,271.1,10.43Z" transform="translate(-229.792 -7.5)" fill="#deecf1"/>
        <path id="Path_1260095" data-name="Path 1260095" d="M113.764,11.914H101.645A4.414,4.414,0,0,1,97.231,7.5h20.947A4.414,4.414,0,0,1,113.764,11.914Z" transform="translate(-87.05 -7.5)" fill="#925cb4"/>
        <path id="Path_1260096" data-name="Path 1260096" d="M64.021,410.79v9.872a2.931,2.931,0,0,1-2.93,2.93H25.643a2.931,2.931,0,0,1-2.93-2.93V410.79Z" transform="translate(-22.713 -355.693)" fill="#925cb4"/>
        <path id="Path_1260097" data-name="Path 1260097" d="M271.1,410.79v9.872a2.931,2.931,0,0,1-2.93,2.93h-5.61a2.931,2.931,0,0,0,2.93-2.93V410.79Z" transform="translate(-229.792 -355.693)" fill="#814ba2"/>
        <path id="Path_1260098" data-name="Path 1260098" d="M140.17,444.368h-6.677a2.5,2.5,0,0,1-2.5-2.5h0a2.5,2.5,0,0,1,2.5-2.5h6.677a2.5,2.5,0,0,1,2.5,2.5h0A2.5,2.5,0,0,1,140.17,444.368Z" transform="translate(-116.203 -380.374)" fill="#f2fbff"/>
      </g>
      <path id="Path_1260099" data-name="Path 1260099" d="M153.867,141.055H123.313a2.071,2.071,0,0,1-2.071-2.071V100.444a2.071,2.071,0,0,1,2.071-2.071h30.554a2.071,2.071,0,0,1,2.071,2.071v38.539A2.071,2.071,0,0,1,153.867,141.055Z" transform="translate(-107.781 -85.958)" fill="#ffe177"/>
      <path id="Path_1260100" data-name="Path 1260100" d="M326.662,100.442v38.539a2.072,2.072,0,0,1-2.071,2.071H318.98a2.071,2.071,0,0,0,2.071-2.071V100.442a2.071,2.071,0,0,0-2.071-2.072h5.611A2.072,2.072,0,0,1,326.662,100.442Z" transform="translate(-278.505 -85.955)" fill="#ffd15b"/>
      <path id="Path_1260101" data-name="Path 1260101" d="M184.627,150.251H163.462a1.156,1.156,0,0,1-1.156-1.156V135.858a1.156,1.156,0,0,1,1.156-1.156h21.165a1.155,1.155,0,0,1,1.156,1.156V149.1A1.155,1.155,0,0,1,184.627,150.251Z" transform="translate(-143.235 -117.324)" fill="#fe93bb"/>
      <path id="Path_1260102" data-name="Path 1260102" d="M227.437,168.708v-6.933a.7.7,0,0,1,1.065-.605l5.814,3.467a.7.7,0,0,1,0,1.21l-5.814,3.467A.7.7,0,0,1,227.437,168.708Z" transform="translate(-199.468 -140.089)" fill="#678d98"/>
      <circle id="Ellipse_12346" data-name="Ellipse 12346" cx="3.042" cy="3.042" r="3.042" transform="translate(46.5 30.908)" fill="#60b7ff"/>
      <circle id="Ellipse_12347" data-name="Ellipse 12347" cx="3.042" cy="3.042" r="3.042" transform="translate(57.659 22.984)" fill="#60b7ff"/>
      <circle id="Ellipse_12348" data-name="Ellipse 12348" cx="3.042" cy="3.042" r="3.042" transform="translate(57.659 38.831)" fill="#60b7ff"/>
    </g>
    <g id="Group_1203425" data-name="Group 1203425" transform="translate(22.713 7.5)">
      <path id="Path_1260103" data-name="Path 1260103" d="M22.713,37.648V10.43a2.931,2.931,0,0,1,2.93-2.93H61.09a2.931,2.931,0,0,1,2.93,2.93v9.484" transform="translate(-22.713 -7.5)" fill="none" stroke="#000" stroke-linecap="round" stroke-linejoin="round" stroke-miterlimit="10" stroke-width="1"/>
      <line id="Line_586" data-name="Line 586" y1="19.91" transform="translate(0 35.187)" fill="none" stroke="#000" stroke-linecap="round" stroke-linejoin="round" stroke-miterlimit="10" stroke-width="1"/>
      <path id="Path_1260104" data-name="Path 1260104" d="M113.764,11.914H101.645A4.414,4.414,0,0,1,97.231,7.5h20.947A4.414,4.414,0,0,1,113.764,11.914Z" transform="translate(-87.05 -7.5)" fill="none" stroke="#000" stroke-linecap="round" stroke-linejoin="round" stroke-miterlimit="10" stroke-width="1"/>
      <path id="Path_1260105" data-name="Path 1260105" d="M64.021,410.79v9.872a2.931,2.931,0,0,1-2.93,2.93H25.643a2.931,2.931,0,0,1-2.93-2.93V410.79Z" transform="translate(-22.713 -355.693)" fill="none" stroke="#000" stroke-linecap="round" stroke-linejoin="round" stroke-miterlimit="10" stroke-width="1"/>
      <path id="Path_1260106" data-name="Path 1260106" d="M140.17,444.368h-6.677a2.5,2.5,0,0,1-2.5-2.5h0a2.5,2.5,0,0,1,2.5-2.5h6.677a2.5,2.5,0,0,1,2.5,2.5h0A2.5,2.5,0,0,1,140.17,444.368Z" transform="translate(-116.203 -380.374)" fill="none" stroke="#000" stroke-linecap="round" stroke-linejoin="round" stroke-miterlimit="10" stroke-width="1"/>
      <path id="Path_1260107" data-name="Path 1260107" d="M155.939,122.616v16.367a2.071,2.071,0,0,1-2.071,2.071H123.313a2.071,2.071,0,0,1-2.071-2.071V100.444a2.071,2.071,0,0,1,2.071-2.071h30.554a2.071,2.071,0,0,1,2.071,2.071V117.2" transform="translate(-107.781 -85.958)" fill="none" stroke="#000" stroke-linecap="round" stroke-linejoin="round" stroke-miterlimit="10" stroke-width="1"/>
      <path id="Path_1260108" data-name="Path 1260108" d="M182.043,134.7h2.584a1.155,1.155,0,0,1,1.156,1.156v13.238a1.156,1.156,0,0,1-1.156,1.156H163.462a1.156,1.156,0,0,1-1.156-1.156V135.856a1.156,1.156,0,0,1,1.156-1.156h13.607" transform="translate(-143.235 -117.323)" fill="none" stroke="#000" stroke-linecap="round" stroke-linejoin="round" stroke-miterlimit="10" stroke-width="1"/>
      <path id="Path_1260109" data-name="Path 1260109" d="M227.437,168.708v-6.933a.7.7,0,0,1,1.065-.605l5.814,3.467a.7.7,0,0,1,0,1.21l-5.814,3.467A.7.7,0,0,1,227.437,168.708Z" transform="translate(-199.468 -140.089)" fill="none" stroke="#000" stroke-linecap="round" stroke-linejoin="round" stroke-miterlimit="10" stroke-width="1"/>
      <line id="Line_587" data-name="Line 587" x2="13.572" transform="translate(28.976 38.149)" fill="none" stroke="#000" stroke-linecap="round" stroke-linejoin="round" stroke-miterlimit="10" stroke-width="1"/>
      <line id="Line_588" data-name="Line 588" x2="5.27" transform="translate(19.071 38.149)" fill="none" stroke="#000" stroke-linecap="round" stroke-linejoin="round" stroke-miterlimit="10" stroke-width="1"/>
      <line id="Line_589" data-name="Line 589" x2="23.476" transform="translate(19.071 43.371)" fill="none" stroke="#000" stroke-linecap="round" stroke-linejoin="round" stroke-miterlimit="10" stroke-width="1"/>
      <line id="Line_590" data-name="Line 590" x2="16.121" transform="translate(19.071 48.592)" fill="none" stroke="#000" stroke-linecap="round" stroke-linejoin="round" stroke-miterlimit="10" stroke-width="1"/>
      <circle id="Ellipse_12349" data-name="Ellipse 12349" cx="3.042" cy="3.042" r="3.042" transform="translate(46.5 30.908)" fill="none" stroke="#000" stroke-linecap="round" stroke-linejoin="round" stroke-miterlimit="10" stroke-width="1"/>
      <circle id="Ellipse_12350" data-name="Ellipse 12350" cx="3.042" cy="3.042" r="3.042" transform="translate(57.659 22.984)" fill="none" stroke="#000" stroke-linecap="round" stroke-linejoin="round" stroke-miterlimit="10" stroke-width="1"/>
      <circle id="Ellipse_12351" data-name="Ellipse 12351" cx="3.042" cy="3.042" r="3.042" transform="translate(57.659 38.831)" fill="none" stroke="#000" stroke-linecap="round" stroke-linejoin="round" stroke-miterlimit="10" stroke-width="1"/>
      <line id="Line_591" data-name="Line 591" y1="4.402" x2="6.2" transform="translate(52.021 27.787)" fill="none" stroke="#000" stroke-linecap="round" stroke-linejoin="round" stroke-miterlimit="10" stroke-width="1"/>
      <line id="Line_592" data-name="Line 592" x2="6.2" y2="4.402" transform="translate(52.021 35.71)" fill="none" stroke="#000" stroke-linecap="round" stroke-linejoin="round" stroke-miterlimit="10" stroke-width="1"/>
    </g>
  </g>
</svg>
