<svg xmlns="http://www.w3.org/2000/svg" xmlns:xlink="http://www.w3.org/1999/xlink" width="118" height="118" viewBox="0 0 118 118">
  <defs>
    <filter id="Rectangle_411831" x="0" y="0" width="118" height="118" filterUnits="userSpaceOnUse">
      <feOffset dy="3" input="SourceAlpha"/>
      <feGaussianBlur stdDeviation="3" result="blur"/>
      <feFlood flood-opacity="0.161"/>
      <feComposite operator="in" in2="blur"/>
      <feComposite in="SourceGraphic"/>
    </filter>
  </defs>
  <g id="Group_1223932" data-name="Group 1223932" transform="translate(-791.781 -1956)">
    <g id="Group_1203409" data-name="Group 1203409" transform="translate(465 -1896)">
      <g transform="matrix(1, 0, 0, 1, 326.78, 3852)" filter="url(#Rectangle_411831)">
        <g id="Rectangle_411831-2" data-name="Rectangle 411831" transform="translate(9 6)" fill="#8fe8d5" stroke="#fff" stroke-width="2">
          <path d="M5,0H68a32,32,0,0,1,32,32V95a5,5,0,0,1-5,5H32A32,32,0,0,1,0,68V5A5,5,0,0,1,5,0Z" stroke="none"/>
          <path d="M5,1H68A31,31,0,0,1,99,32V95a4,4,0,0,1-4,4H32A31,31,0,0,1,1,68V5A4,4,0,0,1,5,1Z" fill="none"/>
        </g>
      </g>
    </g>
    <path id="Path_1260076" data-name="Path 1260076" d="M16.614.687H.856V7.046h11.25L.856,18.219,5.4,22.735,16.614,11.6V22.735h6.441V.687Z" transform="translate(799.924 2039.266)" fill="#1f1321" fill-rule="evenodd"/>
    <path id="Path_1260092" data-name="Path 1260092" d="M5.755,17.459H17.742V12.622H9.184l8.558-8.5L14.284.687,5.755,9.157V.687H.856V17.459Z" transform="translate(883.039 1961.314)" fill="#1f1321" fill-rule="evenodd"/>
    <path id="Path_1290916" data-name="Path 1290916" d="M55.029,6.176H2.812A2.807,2.807,0,0,0,0,8.988V43.632a2.807,2.807,0,0,0,2.812,2.812H55.029a2.807,2.807,0,0,0,2.812-2.812V8.887a2.787,2.787,0,0,0-2.812-2.711" transform="translate(822.979 1978.773)" fill="#57606f" stroke="#000" stroke-width="1"/>
    <path id="Path_1290917" data-name="Path 1290917" d="M5.122,11.2V38.811h47.7V11.2Z" transform="translate(822.979 1978.773)" fill="#ecf0f1" stroke="#000" stroke-width="1"/>
    <path id="Path_1290918" data-name="Path 1290918" d="M22.695,17.824,16.168,19.43,9.64,17.824l6.528-1.607Z" transform="translate(822.979 1978.773)" fill="#ffe678" stroke="#000" stroke-width="1"/>
    <path id="Path_1290919" data-name="Path 1290919" d="M22.695,17.824v6.427l-6.527,1.707V19.43Z" transform="translate(822.979 1978.773)" fill="#eabf6a" stroke="#000" stroke-width="1"/>
    <path id="Path_1290920" data-name="Path 1290920" d="M16.167,19.431v6.527L9.64,24.251V17.825Z" transform="translate(822.979 1978.773)" fill="#fcd884" stroke="#000" stroke-width="1"/>
    <path id="Path_1290921" data-name="Path 1290921" d="M5.724,50.059a1.908,1.908,0,1,1-1.908,1.908,1.907,1.907,0,0,1,1.908-1.908" transform="translate(822.979 1978.773)" fill="#d7deed" stroke="#000" stroke-width="1"/>
    <path id="Path_1290922" data-name="Path 1290922" d="M51.515,52.569A2.511,2.511,0,1,1,49,55.08a2.486,2.486,0,0,1,2.511-2.511" transform="translate(822.979 1978.773)" fill="#d7deed" stroke="#000" stroke-width="1"/>
    <path id="Path_1290923" data-name="Path 1290923" d="M35.247,53.874h3.716a2.883,2.883,0,0,1,1.806.7,2.275,2.275,0,0,1,.7,1.807A2.486,2.486,0,0,1,38.963,58.9H18.879a2.886,2.886,0,0,1-1.808-.7,2.421,2.421,0,0,1-.7-1.808,2.487,2.487,0,0,1,2.511-2.51h3.816V46.343H35.247Z" transform="translate(822.979 1978.773)" fill="#414a56" stroke="#000" stroke-width="1"/>
    <path id="Path_1290924" data-name="Path 1290924" d="M47.2,15.314a1.272,1.272,0,0,1,.4.9.977.977,0,0,1-.4.9,1.27,1.27,0,0,1-.9.4,1.329,1.329,0,0,1-1.306-1.306,1.09,1.09,0,0,1,.4-.9,1.216,1.216,0,0,1,1.807,0" transform="translate(822.979 1978.773)" fill="#313a52" stroke="#000" stroke-width="1"/>
    <path id="Path_1290925" data-name="Path 1290925" d="M47.2,19.129a1.273,1.273,0,0,1,.4.9.978.978,0,0,1-.4.9,1.274,1.274,0,0,1-.9.4,1.329,1.329,0,0,1-1.306-1.3,1.092,1.092,0,0,1,.4-.9,1.218,1.218,0,0,1,1.807,0" transform="translate(822.979 1978.773)" fill="#313a52" stroke="#000" stroke-width="1"/>
    <path id="Path_1290926" data-name="Path 1290926" d="M43.481,19.129a1.276,1.276,0,0,1,.4.9.979.979,0,0,1-.4.9,1.276,1.276,0,0,1-.9.4,1.329,1.329,0,0,1-1.305-1.3,1.091,1.091,0,0,1,.4-.9,1.274,1.274,0,0,1,.9-.4,1.5,1.5,0,0,1,.9.4" transform="translate(822.979 1978.773)" fill="#313a52" stroke="#000" stroke-width="1"/>
    <path id="Path_1290927" data-name="Path 1290927" d="M39.665,19.129a1.273,1.273,0,0,1,.4.9.978.978,0,0,1-.4.9,1.274,1.274,0,0,1-.9.4,1.329,1.329,0,0,1-1.306-1.3,1.094,1.094,0,0,1,.4-.9,1.219,1.219,0,0,1,1.808,0" transform="translate(822.979 1978.773)" fill="#313a52" stroke="#000" stroke-width="1"/>
    <path id="Path_1290928" data-name="Path 1290928" d="M35.95,19.129a1.276,1.276,0,0,1,.4.9.979.979,0,0,1-.4.9,1.276,1.276,0,0,1-.9.4,1.329,1.329,0,0,1-1.306-1.3,1.092,1.092,0,0,1,.4-.9,1.272,1.272,0,0,1,.9-.4,1.5,1.5,0,0,1,.9.4" transform="translate(822.979 1978.773)" fill="#313a52" stroke="#000" stroke-width="1"/>
    <path id="Path_1290929" data-name="Path 1290929" d="M29.824,41.623a1.272,1.272,0,0,1,.4.9.976.976,0,0,1-.4.9,1.272,1.272,0,0,1-.9.4,1.33,1.33,0,0,1-1.306-1.305,1.093,1.093,0,0,1,.4-.9,1.217,1.217,0,0,1,1.808,0" transform="translate(822.979 1978.773)" fill="#414a56" stroke="#000" stroke-width="1"/>
    <path id="Path_1290930" data-name="Path 1290930" d="M45.289,60.1H12.653a1.306,1.306,0,0,1,0-2.611H45.289a1.329,1.329,0,0,1,1.305,1.306A1.4,1.4,0,0,1,45.289,60.1" transform="translate(822.979 1978.773)" fill="#3c3b3d" stroke="#000" stroke-width="1"/>
    <path id="Path_1290931" data-name="Path 1290931" d="M37.958,37.808A1.33,1.33,0,0,1,36.652,36.5V33.691a.949.949,0,0,0-1-1.005h-23.4a3.113,3.113,0,1,1,0-6.226H44.887a.524.524,0,0,0,.4-.2.76.76,0,0,0,.2-.4.647.647,0,0,0-.6-.6H29.121a3.558,3.558,0,0,1-3.514-3.515V20.034a1.306,1.306,0,1,1,2.611,0v1.707a.948.948,0,0,0,1,1H44.987a3.113,3.113,0,1,1,0,6.226H12.251a.648.648,0,0,0-.6.6c0,.2.1.4.2.4a.756.756,0,0,0,.4.2h23.5a3.559,3.559,0,0,1,3.515,3.515V36.5a1.33,1.33,0,0,1-1.306,1.306" transform="translate(822.979 1978.773)" fill="#bec3c7"/>
    <path id="Path_1290932" data-name="Path 1290932" d="M45.39.753a2.419,2.419,0,0,1,.7,1.808,2.577,2.577,0,0,1-.7,1.807l-.7.7-1.005,1L40.168,2.561,41.975.753a2.312,2.312,0,0,1,3.415,0" transform="translate(822.979 1978.773)" fill="#ef727a" stroke="#000" stroke-width="1"/>
    <path id="Path_1290933" data-name="Path 1290933" d="M43.682,6.075l-4.017,4.017L30.327,19.43,25,21.138l1.807-5.322,5.725-5.724,5.02-5.021L40.068,2.56Z" transform="translate(822.979 1978.773)" fill="#3c3b3d" stroke="#000" stroke-width="1"/>
  </g>
</svg>
