<svg xmlns="http://www.w3.org/2000/svg" xmlns:xlink="http://www.w3.org/1999/xlink" width="118" height="118" viewBox="0 0 118 118">
  <defs>
    <filter id="Rectangle_411831" x="0" y="0" width="118" height="118" filterUnits="userSpaceOnUse">
      <feOffset dy="3" input="SourceAlpha"/>
      <feGaussianBlur stdDeviation="3" result="blur"/>
      <feFlood flood-opacity="0.161"/>
      <feComposite operator="in" in2="blur"/>
      <feComposite in="SourceGraphic"/>
    </filter>
    <clipPath id="clip-path">
      <rect id="Rectangle_425278" data-name="Rectangle 425278" width="61.875" height="64.453" fill="none" stroke="#000" stroke-width="1"/>
    </clipPath>
  </defs>
  <g id="Group_1223984" data-name="Group 1223984" transform="translate(-791.781 -1956)">
    <g id="Group_1203409" data-name="Group 1203409" transform="translate(465 -1896)">
      <g transform="matrix(1, 0, 0, 1, 326.78, 3852)" filter="url(#Rectangle_411831)">
        <g id="Rectangle_411831-2" data-name="Rectangle 411831" transform="translate(9 6)" fill="#d9aef1" stroke="#fff" stroke-width="2">
          <path d="M5,0H68a32,32,0,0,1,32,32V95a5,5,0,0,1-5,5H32A32,32,0,0,1,0,68V5A5,5,0,0,1,5,0Z" stroke="none"/>
          <path d="M5,1H68A31,31,0,0,1,99,32V95a4,4,0,0,1-4,4H32A31,31,0,0,1,1,68V5A4,4,0,0,1,5,1Z" fill="none"/>
        </g>
      </g>
      <g id="Group_1223985" data-name="Group 1223985" transform="translate(356.537 3872.773)">
        <g id="Group_1223964" data-name="Group 1223964" transform="translate(0 0)" clip-path="url(#clip-path)">
          <path id="Path_1291031" data-name="Path 1291031" d="M10.3,60.246a1.421,1.421,0,0,1-1.4-1.4V5.139a1.4,1.4,0,1,1,2.793,0V58.851a1.591,1.591,0,0,1-1.4,1.4" transform="translate(0.551 0.231)" fill="#afb9d2" stroke="#000" stroke-width="1"/>
          <path id="Path_1291032" data-name="Path 1291032" d="M48.233,60.246a1.42,1.42,0,0,1-1.4-1.4V5.139a1.421,1.421,0,0,1,1.4-1.4,1.333,1.333,0,0,1,1.289,1.4V58.851a1.406,1.406,0,0,1-1.289,1.4" transform="translate(2.9 0.231)" fill="#afb9d2" stroke="#000" stroke-width="1"/>
          <path id="Path_1291033" data-name="Path 1291033" d="M29.8,17.905,18.311,24.458v13.32L24.111,41l5.693,3.33L35.5,41l5.8-3.223V24.458Z" transform="translate(1.134 1.108)" fill="#74829c" stroke="#000" stroke-width="1"/>
          <path id="Path_1291034" data-name="Path 1291034" d="M40.628,30.736V37.4l-5.8,3.224-5.693,3.329V30.736l11.494-6.659Z" transform="translate(1.804 1.49)" fill="#b75337" stroke="#000" stroke-width="1"/>
          <path id="Path_1291035" data-name="Path 1291035" d="M29.8,30.736V43.948l-5.693-3.329-5.8-3.224V24.077Z" transform="translate(1.134 1.49)" fill="#c6613e" stroke="#000" stroke-width="1"/>
          <path id="Path_1291036" data-name="Path 1291036" d="M41.3,24.458,29.8,31.117,18.31,24.458,29.8,17.905Z" transform="translate(1.134 1.108)" fill="#74829c" stroke="#000" stroke-width="1"/>
          <path id="Path_1291037" data-name="Path 1291037" d="M45.357,33.312a1.362,1.362,0,0,1,.429.966,1.049,1.049,0,0,1-.429.967,1.5,1.5,0,0,1-.967.322,1.421,1.421,0,0,1-1.4-1.4,1.166,1.166,0,0,1,.43-.967,1.359,1.359,0,0,1,.966-.43,1.129,1.129,0,0,1,.967.537" transform="translate(2.662 2.029)" fill="#74829c" stroke="#000" stroke-width="1"/>
          <path id="Path_1291038" data-name="Path 1291038" d="M44.041,44.636a1.362,1.362,0,0,1,.429.966,1.162,1.162,0,0,1-.429.966,1.359,1.359,0,0,1-.966.431,1.424,1.424,0,0,1-1.4-1.4,1.166,1.166,0,0,1,.43-.966,1.365,1.365,0,0,1,.967-.43,2.026,2.026,0,0,1,.966.43" transform="translate(2.58 2.737)" fill="#74829c" stroke="#000" stroke-width="1"/>
          <path id="Path_1291039" data-name="Path 1291039" d="M40.3,44.636a1.363,1.363,0,0,1,.43.966,1.163,1.163,0,0,1-.43.966,1.359,1.359,0,0,1-.966.431,1.423,1.423,0,0,1-1.4-1.4,1.163,1.163,0,0,1,.43-.966,1.3,1.3,0,0,1,1.933,0" transform="translate(2.349 2.737)" fill="#74829c" stroke="#000" stroke-width="1"/>
          <path id="Path_1291040" data-name="Path 1291040" d="M38.984,16.817a1.363,1.363,0,0,1,.429.967,1.047,1.047,0,0,1-.429.966,1.365,1.365,0,0,1-.967.43,1.422,1.422,0,0,1-1.4-1.4,1.165,1.165,0,0,1,.43-.967,1.3,1.3,0,0,1,1.934,0" transform="translate(2.267 1.014)" fill="#74829c" stroke="#000" stroke-width="1"/>
          <path id="Path_1291041" data-name="Path 1291041" d="M36.454,44.636a1.362,1.362,0,0,1,.429.966,1.162,1.162,0,0,1-.429.966,1.359,1.359,0,0,1-.966.431,1.424,1.424,0,0,1-1.4-1.4,1.166,1.166,0,0,1,.43-.966,1.3,1.3,0,0,1,1.934,0" transform="translate(2.111 2.737)" fill="#74829c" stroke="#000" stroke-width="1"/>
          <path id="Path_1291042" data-name="Path 1291042" d="M23.81,44.636a1.362,1.362,0,0,1,.429.966,1.165,1.165,0,0,1-.429.966,1.6,1.6,0,0,1-.967.431,1.423,1.423,0,0,1-1.4-1.4,1.163,1.163,0,0,1,.43-.966,1.6,1.6,0,0,1,.966-.43,1.365,1.365,0,0,1,.967.43" transform="translate(1.328 2.737)" fill="#74829c" stroke="#000" stroke-width="1"/>
          <path id="Path_1291043" data-name="Path 1291043" d="M20.067,44.636a1.362,1.362,0,0,1,.429.966,1.162,1.162,0,0,1-.429.966A1.6,1.6,0,0,1,19.1,47a1.424,1.424,0,0,1-1.4-1.4,1.166,1.166,0,0,1,.43-.966,1.6,1.6,0,0,1,.967-.43,1.363,1.363,0,0,1,.966.43" transform="translate(1.096 2.737)" fill="#74829c" stroke="#000" stroke-width="1"/>
          <path id="Path_1291044" data-name="Path 1291044" d="M20.067,16.817a1.363,1.363,0,0,1,.429.967,1.045,1.045,0,0,1-.429.966,1.363,1.363,0,0,1-.966.43,1.423,1.423,0,0,1-1.4-1.4,1.168,1.168,0,0,1,.43-.967,1.3,1.3,0,0,1,1.934,0" transform="translate(1.096 1.014)" fill="#74829c" stroke="#000" stroke-width="1"/>
          <path id="Path_1291045" data-name="Path 1291045" d="M16.223,44.636a1.362,1.362,0,0,1,.429.966,1.165,1.165,0,0,1-.429.966,1.6,1.6,0,0,1-.967.431,1.422,1.422,0,0,1-1.4-1.4,1.162,1.162,0,0,1,.429-.966,1.6,1.6,0,0,1,.966-.43,1.365,1.365,0,0,1,.967.43" transform="translate(0.858 2.737)" fill="#74829c" stroke="#000" stroke-width="1"/>
          <path id="Path_1291046" data-name="Path 1291046" d="M15.009,28.255a1.362,1.362,0,0,1,.429.966,1.047,1.047,0,0,1-.429.966,1.738,1.738,0,0,1-.967.323,1.422,1.422,0,0,1-1.4-1.4,1.168,1.168,0,0,1,.43-.967,1.362,1.362,0,0,1,.966-.429,1.129,1.129,0,0,1,.967.537" transform="translate(0.783 1.716)" fill="#74829c" stroke="#000" stroke-width="1"/>
          <path id="Path_1291047" data-name="Path 1291047" d="M60.479,6.536H1.4a1.4,1.4,0,1,1,0-2.793H60.479a1.4,1.4,0,0,1,0,2.793" transform="translate(0 0.231)" fill="#57606f" stroke="#000" stroke-width="1"/>
          <path id="Path_1291048" data-name="Path 1291048" d="M60.479,57.115H1.4a1.4,1.4,0,1,1,0-2.793H60.479a1.4,1.4,0,0,1,0,2.793" transform="translate(0 3.363)" fill="#57606f" stroke="#000" stroke-width="1"/>
          <path id="Path_1291049" data-name="Path 1291049" d="M56.266,11.594H5.24a1.4,1.4,0,0,1,0-2.793H56.266a1.424,1.424,0,0,1,1.4,1.4,1.594,1.594,0,0,1-1.4,1.4" transform="translate(0.238 0.545)" fill="#d7deed" stroke="#000" stroke-width="1"/>
          <path id="Path_1291050" data-name="Path 1291050" d="M56.266,52.057H5.24a1.4,1.4,0,0,1,0-2.793H56.266a1.423,1.423,0,0,1,1.4,1.4,1.6,1.6,0,0,1-1.4,1.4" transform="translate(0.238 3.05)" fill="#d7deed" stroke="#000" stroke-width="1"/>
          <path id="Path_1291051" data-name="Path 1291051" d="M5.24,64.453a1.421,1.421,0,0,1-1.4-1.4V1.4a1.4,1.4,0,1,1,2.792,0V63.164a1.593,1.593,0,0,1-1.4,1.289" transform="translate(0.238 0)" fill="#232b3f" stroke="#000" stroke-width="1"/>
          <path id="Path_1291052" data-name="Path 1291052" d="M53.291,64.453a1.422,1.422,0,0,1-1.4-1.4V1.4a1.4,1.4,0,0,1,2.794,0V63.164a1.6,1.6,0,0,1-1.4,1.289" transform="translate(3.213 0)" fill="#232b3f" stroke="#000" stroke-width="1"/>
        </g>
      </g>
    </g>
    <path id="Path_1260076" data-name="Path 1260076" d="M16.614.687H.856V7.046h11.25L.856,18.219,5.4,22.735,16.614,11.6V22.735h6.441V.687Z" transform="translate(799.924 2039.266)" fill="#1f1321" fill-rule="evenodd"/>
    <path id="Path_1260092" data-name="Path 1260092" d="M5.755,17.459H17.742V12.622H9.184l8.558-8.5L14.284.687,5.755,9.157V.687H.856V17.459Z" transform="translate(883.039 1961.314)" fill="#1f1321" fill-rule="evenodd"/>
  </g>
</svg>
