<svg xmlns="http://www.w3.org/2000/svg" xmlns:xlink="http://www.w3.org/1999/xlink" width="118" height="118" viewBox="0 0 118 118">
  <defs>
    <filter id="Rectangle_411831" x="0" y="0" width="118" height="118" filterUnits="userSpaceOnUse">
      <feOffset dy="3" input="SourceAlpha"/>
      <feGaussianBlur stdDeviation="3" result="blur"/>
      <feFlood flood-opacity="0.161"/>
      <feComposite operator="in" in2="blur"/>
      <feComposite in="SourceGraphic"/>
    </filter>
  </defs>
  <g id="Group_1223988" data-name="Group 1223988" transform="translate(-791.781 -1956)">
    <g id="Group_1203409" data-name="Group 1203409" transform="translate(465 -1896)">
      <g transform="matrix(1, 0, 0, 1, 326.78, 3852)" filter="url(#Rectangle_411831)">
        <g id="Rectangle_411831-2" data-name="Rectangle 411831" transform="translate(9 6)" fill="#d9aef1" stroke="#fff" stroke-width="2">
          <path d="M5,0H68a32,32,0,0,1,32,32V95a5,5,0,0,1-5,5H32A32,32,0,0,1,0,68V5A5,5,0,0,1,5,0Z" stroke="none"/>
          <path d="M5,1H68A31,31,0,0,1,99,32V95a4,4,0,0,1-4,4H32A31,31,0,0,1,1,68V5A4,4,0,0,1,5,1Z" fill="none"/>
        </g>
      </g>
      <g id="Group_1223989" data-name="Group 1223989" transform="translate(2756.005 11904)">
        <path id="Path_1291104" data-name="Path 1291104" d="M0,4.653v55H37.6V54.282H5.371V4.653Z" transform="translate(-2393.261 -8030.087)" fill="#bec3c7" stroke="#000" stroke-width="1"/>
        <path id="Path_1291105" data-name="Path 1291105" d="M33.006,0H4.754V55.108h37.6V9.346L33.006,0" transform="translate(-2392.967 -8030.375)" fill="#ecf0f1" stroke="#000" stroke-width="1"/>
        <path id="Path_1291106" data-name="Path 1291106" d="M31.359,0l9.453,9.453H31.359Z" transform="translate(-2391.32 -8030.375)" fill="#bec3c7" stroke="#000" stroke-width="1"/>
        <path id="Path_1291107" data-name="Path 1291107" d="M27.6,25.29a1.4,1.4,0,1,1-1.4,1.4,1.421,1.421,0,0,1,1.4-1.4" transform="translate(-2391.639 -8028.809)" fill="#afb9d2" stroke="#000" stroke-width="1"/>
        <path id="Path_1291108" data-name="Path 1291108" d="M25.067,11.33a1.4,1.4,0,1,1-1.4,1.4,1.5,1.5,0,0,1,1.4-1.4" transform="translate(-2391.795 -8029.673)" fill="#65b2fe" stroke="#000" stroke-width="1"/>
        <path id="Path_1291109" data-name="Path 1291109" d="M21.325,11.33a1.4,1.4,0,1,1-1.4,1.4,1.421,1.421,0,0,1,1.4-1.4" transform="translate(-2392.027 -8029.673)" fill="#65b2fe" stroke="#000" stroke-width="1"/>
        <path id="Path_1291110" data-name="Path 1291110" d="M17.48,11.33a1.4,1.4,0,1,1-1.4,1.4,1.5,1.5,0,0,1,1.4-1.4" transform="translate(-2392.265 -8029.673)" fill="#65b2fe" stroke="#000" stroke-width="1"/>
        <path id="Path_1291111" data-name="Path 1291111" d="M13.738,11.33a1.4,1.4,0,1,1-1.4,1.4,1.421,1.421,0,0,1,1.4-1.4" transform="translate(-2392.497 -8029.673)" fill="#65b2fe" stroke="#000" stroke-width="1"/>
        <path id="Path_1291112" data-name="Path 1291112" d="M9.894,11.33a1.4,1.4,0,1,1-1.4,1.4,1.5,1.5,0,0,1,1.4-1.4" transform="translate(-2392.735 -8029.673)" fill="#65b2fe" stroke="#000" stroke-width="1"/>
        <path id="Path_1291113" data-name="Path 1291113" d="M24.636,42.693h-10.1a4.768,4.768,0,0,1-4.727-4.727,4.768,4.768,0,0,1,4.727-4.727h18.8a.694.694,0,0,0,.645-.646.557.557,0,0,0-.215-.429.812.812,0,0,0-.43-.215h-20.2a3.33,3.33,0,1,1,0-6.66H24.529a1.4,1.4,0,1,1,0,2.793H13.142c-.215,0-.43.107-.43.215a.559.559,0,0,0-.215.43.694.694,0,0,0,.645.645h20.2a3.33,3.33,0,1,1,0,6.66h-18.8a2.042,2.042,0,0,0-1.4.536,1.781,1.781,0,0,0-.537,1.4,2.039,2.039,0,0,0,2.041,2.041h10.1a1.421,1.421,0,0,1,1.4,1.4,1.506,1.506,0,0,1-1.5,1.29" transform="translate(-2392.654 -8028.809)" fill="#afb9d2" stroke="#000" stroke-width="1"/>
        <path id="Path_1291114" data-name="Path 1291114" d="M49.388,37.935v5.371H26.614l-5.371-2.687,5.371-2.685H49.388Z" transform="translate(-2391.946 -8028.026)" fill="#3c3b3d" stroke="#000" stroke-width="1"/>
        <path id="Path_1291115" data-name="Path 1291115" d="M50.433,37.935a2.658,2.658,0,0,1,2.686,2.685,3.088,3.088,0,0,1-.752,1.935,2.593,2.593,0,0,1-1.934.752H47.747V37.935Z" transform="translate(-2390.305 -8028.026)" fill="#f14742" stroke="#000" stroke-width="1"/>
      </g>
    </g>
    <path id="Path_1260076" data-name="Path 1260076" d="M16.614.687H.856V7.046h11.25L.856,18.219,5.4,22.735,16.614,11.6V22.735h6.441V.687Z" transform="translate(799.924 2039.266)" fill="#1f1321" fill-rule="evenodd"/>
    <path id="Path_1260092" data-name="Path 1260092" d="M5.755,17.459H17.742V12.622H9.184l8.558-8.5L14.284.687,5.755,9.157V.687H.856V17.459Z" transform="translate(883.039 1961.314)" fill="#1f1321" fill-rule="evenodd"/>
  </g>
</svg>
