<svg xmlns="http://www.w3.org/2000/svg" xmlns:xlink="http://www.w3.org/1999/xlink" width="118" height="118" viewBox="0 0 118 118">
  <defs>
    <filter id="Rectangle_411831" x="0" y="0" width="118" height="118" filterUnits="userSpaceOnUse">
      <feOffset dy="3" input="SourceAlpha"/>
      <feGaussianBlur stdDeviation="3" result="blur"/>
      <feFlood flood-opacity="0.161"/>
      <feComposite operator="in" in2="blur"/>
      <feComposite in="SourceGraphic"/>
    </filter>
  </defs>
  <g id="Group_1223986" data-name="Group 1223986" transform="translate(-791.781 -1956)">
    <g id="Group_1203409" data-name="Group 1203409" transform="translate(465 -1896)">
      <g transform="matrix(1, 0, 0, 1, 326.78, 3852)" filter="url(#Rectangle_411831)">
        <g id="Rectangle_411831-2" data-name="Rectangle 411831" transform="translate(9 6)" fill="#d9aef1" stroke="#fff" stroke-width="2">
          <path d="M5,0H68a32,32,0,0,1,32,32V95a5,5,0,0,1-5,5H32A32,32,0,0,1,0,68V5A5,5,0,0,1,5,0Z" stroke="none"/>
          <path d="M5,1H68A31,31,0,0,1,99,32V95a4,4,0,0,1-4,4H32A31,31,0,0,1,1,68V5A4,4,0,0,1,5,1Z" fill="none"/>
        </g>
      </g>
      <g id="Group_1223987" data-name="Group 1223987" transform="translate(2371.548 12860.168)">
        <path id="Path_1291075" data-name="Path 1291075" d="M56.826,0H5.048A5.042,5.042,0,0,0,0,5.048V36.632a5.041,5.041,0,0,0,5.048,5.047H56.718a5.042,5.042,0,0,0,5.049-5.047V5.048A4.886,4.886,0,0,0,56.826,0" transform="translate(-2016.652 -8979.79)" fill="#57606f" stroke="#000" stroke-width="1"/>
        <path id="Path_1291076" data-name="Path 1291076" d="M5.885,21.547a2.039,2.039,0,0,1,2.041,2.041,1.975,1.975,0,0,1-2.041,2.041A2.066,2.066,0,0,1,3.844,23.48a1.89,1.89,0,0,1,2.041-1.933" transform="translate(-2016.414 -8978.456)" fill="#64e1db" stroke="#000" stroke-width="1"/>
        <path id="Path_1291077" data-name="Path 1291077" d="M5.885,13.96A2.039,2.039,0,0,1,7.926,16a1.949,1.949,0,0,1-2.041,1.933,2.038,2.038,0,0,1-2.041-2.041A1.89,1.89,0,0,1,5.885,13.96" transform="translate(-2016.414 -8978.926)" fill="#64e1db" stroke="#000" stroke-width="1"/>
        <rect id="Rectangle_425281" data-name="Rectangle 425281" width="44.365" height="30.938" transform="translate(-2004.514 -8974.419)" fill="#ecf0f1" stroke="#000" stroke-width="1"/>
        <path id="Path_1291078" data-name="Path 1291078" d="M51.457,42.015l-5.693,5.693-7.628-7.519-5.371-5.37-3.115-3.224-1.935-7.518L35.344,25.9l8.809,8.917,5.371,5.37Z" transform="translate(-2014.936 -8978.299)" fill="#3c3b3d" stroke="#000" stroke-width="1"/>
        <rect id="Rectangle_425282" data-name="Rectangle 425282" width="8.057" height="3.974" transform="matrix(0.707, -0.707, 0.707, 0.707, -1969.144, -8930.608)" fill="#747371" stroke="#000" stroke-width="1"/>
        <path id="Path_1291079" data-name="Path 1291079" d="M55.07,45.635a4.025,4.025,0,1,1-5.693,5.693l-1.934-1.934L53.137,43.7Z" transform="translate(-2013.715 -8977.084)" fill="#f14742" stroke="#000" stroke-width="1"/>
        <path id="Path_1291080" data-name="Path 1291080" d="M35.24,18.133a1.363,1.363,0,0,1,.43.966,1.046,1.046,0,0,1-.43.966,1.363,1.363,0,0,1-.966.43,1.423,1.423,0,0,1-1.4-1.4,1.164,1.164,0,0,1,.431-.966,1.356,1.356,0,0,1,.966-.43,1.046,1.046,0,0,1,.966.43" transform="translate(-2014.617 -8978.693)" fill="#65b2fe" stroke="#000" stroke-width="1"/>
        <path id="Path_1291081" data-name="Path 1291081" d="M31.4,18.133a1.362,1.362,0,0,1,.429.966,1.045,1.045,0,0,1-.429.966,1.363,1.363,0,0,1-.966.43,1.422,1.422,0,0,1-1.4-1.4,1.166,1.166,0,0,1,.43-.966,1.359,1.359,0,0,1,.967-.43,1.046,1.046,0,0,1,.966.43" transform="translate(-2014.855 -8978.693)" fill="#65b2fe" stroke="#000" stroke-width="1"/>
        <path id="Path_1291082" data-name="Path 1291082" d="M27.653,18.133a1.363,1.363,0,0,1,.43.966,1.046,1.046,0,0,1-.43.966,1.363,1.363,0,0,1-.966.43,1.423,1.423,0,0,1-1.4-1.4,1.164,1.164,0,0,1,.431-.966,1.359,1.359,0,0,1,.966-.43,1.046,1.046,0,0,1,.966.43" transform="translate(-2015.087 -8978.693)" fill="#65b2fe" stroke="#000" stroke-width="1"/>
        <path id="Path_1291083" data-name="Path 1291083" d="M23.809,18.133a1.362,1.362,0,0,1,.429.966,1.045,1.045,0,0,1-.429.966,1.363,1.363,0,0,1-.966.43,1.423,1.423,0,0,1-1.4-1.4,1.166,1.166,0,0,1,.43-.966,1.361,1.361,0,0,1,.967-.43,1.046,1.046,0,0,1,.966.43" transform="translate(-2015.325 -8978.693)" fill="#65b2fe" stroke="#000" stroke-width="1"/>
        <path id="Path_1291084" data-name="Path 1291084" d="M20.066,18.133a1.363,1.363,0,0,1,.43.966,1.046,1.046,0,0,1-.43.966,1.363,1.363,0,0,1-.966.43,1.423,1.423,0,0,1-1.4-1.4,1.164,1.164,0,0,1,.431-.966,1.359,1.359,0,0,1,.966-.43,1.046,1.046,0,0,1,.966.43" transform="translate(-2015.556 -8978.693)" fill="#65b2fe" stroke="#000" stroke-width="1"/>
        <path id="Path_1291085" data-name="Path 1291085" d="M8.007,11.594H3.924a1.4,1.4,0,0,1,0-2.793H8.007a1.422,1.422,0,0,1,1.4,1.4,1.593,1.593,0,0,1-1.4,1.4" transform="translate(-2016.496 -8979.245)" fill="#d8f2f1" stroke="#000" stroke-width="1"/>
        <path id="Path_1291086" data-name="Path 1291086" d="M8.007,7.75H3.924a1.4,1.4,0,0,1,0-2.794H8.007a1.423,1.423,0,0,1,1.4,1.4,1.593,1.593,0,0,1-1.4,1.4" transform="translate(-2016.496 -8979.482)" fill="#d8f2f1" stroke="#000" stroke-width="1"/>
        <path id="Path_1291087" data-name="Path 1291087" d="M8.007,30.5H3.924a1.421,1.421,0,0,1-1.4-1.4,1.331,1.331,0,0,1,1.4-1.289H8.007a1.421,1.421,0,0,1,1.4,1.4,1.4,1.4,0,0,1-1.4,1.289" transform="translate(-2016.496 -8978.067)" fill="#d8f2f1" stroke="#000" stroke-width="1"/>
        <path id="Path_1291088" data-name="Path 1291088" d="M8.007,34.355H3.924a1.4,1.4,0,0,1,0-2.793H8.007a1.422,1.422,0,0,1,1.4,1.4,1.5,1.5,0,0,1-1.4,1.4" transform="translate(-2016.496 -8977.836)" fill="#d8f2f1" stroke="#000" stroke-width="1"/>
        <path id="Path_1291089" data-name="Path 1291089" d="M15.355,12.964a1.421,1.421,0,0,1-1.4-1.4V8.882a1.421,1.421,0,0,1,1.4-1.4h2.686a1.4,1.4,0,1,1,0,2.793h-1.4v1.4a1.385,1.385,0,0,1-1.289,1.289" transform="translate(-2015.788 -8979.326)" fill="#afb9d2" stroke="#000" stroke-width="1"/>
        <path id="Path_1291090" data-name="Path 1291090" d="M18.042,31.982H15.356a1.422,1.422,0,0,1-1.4-1.4V27.9a1.4,1.4,0,1,1,2.793,0v1.4h1.4a1.42,1.42,0,0,1,1.4,1.4,1.506,1.506,0,0,1-1.5,1.289" transform="translate(-2015.788 -8978.148)" fill="#afb9d2" stroke="#000" stroke-width="1"/>
        <path id="Path_1291091" data-name="Path 1291091" d="M49.6,31.982H46.917a1.4,1.4,0,0,1,0-2.793h1.4V27.9a1.4,1.4,0,1,1,2.793,0v2.687a1.6,1.6,0,0,1-1.5,1.4" transform="translate(-2013.834 -8978.148)" fill="#afb9d2" stroke="#000" stroke-width="1"/>
        <path id="Path_1291092" data-name="Path 1291092" d="M49.609,12.971a1.422,1.422,0,0,1-1.4-1.4v-1.4h-1.4a1.4,1.4,0,0,1,0-2.794h2.793a1.423,1.423,0,0,1,1.4,1.4v2.686a1.447,1.447,0,0,1-1.4,1.5" transform="translate(-2013.84 -8979.332)" fill="#afb9d2" stroke="#000" stroke-width="1"/>
      </g>
    </g>
    <path id="Path_1260076" data-name="Path 1260076" d="M16.614.687H.856V7.046h11.25L.856,18.219,5.4,22.735,16.614,11.6V22.735h6.441V.687Z" transform="translate(799.924 2039.266)" fill="#1f1321" fill-rule="evenodd"/>
    <path id="Path_1260092" data-name="Path 1260092" d="M5.755,17.459H17.742V12.622H9.184l8.558-8.5L14.284.687,5.755,9.157V.687H.856V17.459Z" transform="translate(883.039 1961.314)" fill="#1f1321" fill-rule="evenodd"/>
  </g>
</svg>
