<svg xmlns="http://www.w3.org/2000/svg" xmlns:xlink="http://www.w3.org/1999/xlink" width="118" height="118" viewBox="0 0 118 118">
  <defs>
    <filter id="Rectangle_411831" x="0" y="0" width="118" height="118" filterUnits="userSpaceOnUse">
      <feOffset dy="3" input="SourceAlpha"/>
      <feGaussianBlur stdDeviation="3" result="blur"/>
      <feFlood flood-opacity="0.161"/>
      <feComposite operator="in" in2="blur"/>
      <feComposite in="SourceGraphic"/>
    </filter>
  </defs>
  <g id="Group_1223936" data-name="Group 1223936" transform="translate(-791.781 -1956)">
    <g id="Group_1203409" data-name="Group 1203409" transform="translate(465 -1896)">
      <g transform="matrix(1, 0, 0, 1, 326.78, 3852)" filter="url(#Rectangle_411831)">
        <g id="Rectangle_411831-2" data-name="Rectangle 411831" transform="translate(9 6)" fill="#8fe8d5" stroke="#fff" stroke-width="2">
          <path d="M5,0H68a32,32,0,0,1,32,32V95a5,5,0,0,1-5,5H32A32,32,0,0,1,0,68V5A5,5,0,0,1,5,0Z" stroke="none"/>
          <path d="M5,1H68A31,31,0,0,1,99,32V95a4,4,0,0,1-4,4H32A31,31,0,0,1,1,68V5A4,4,0,0,1,5,1Z" fill="none"/>
        </g>
      </g>
    </g>
    <path id="Path_1260076" data-name="Path 1260076" d="M16.614.687H.856V7.046h11.25L.856,18.219,5.4,22.735,16.614,11.6V22.735h6.441V.687Z" transform="translate(799.924 2039.266)" fill="#1f1321" fill-rule="evenodd"/>
    <path id="Path_1260092" data-name="Path 1260092" d="M5.755,17.459H17.742V12.622H9.184l8.558-8.5L14.284.687,5.755,9.157V.687H.856V17.459Z" transform="translate(883.039 1961.314)" fill="#1f1321" fill-rule="evenodd"/>
    <path id="Path_1290946" data-name="Path 1290946" d="M52.89,0H19.077a2.606,2.606,0,0,0-2.625,2.624V46.53a2.606,2.606,0,0,0,2.625,2.624H52.89a2.672,2.672,0,0,0,2.624-2.624V2.624A2.6,2.6,0,0,0,52.89,0" transform="translate(822.979 1981)" fill="#d7deed" stroke="#000" stroke-width="1"/>
    <path id="Path_1290947" data-name="Path 1290947" d="M13.727,0H2.624A2.606,2.606,0,0,0,0,2.624V46.53a2.606,2.606,0,0,0,2.624,2.624h11.1a2.606,2.606,0,0,0,2.624-2.624V2.624A2.489,2.489,0,0,0,13.727,0" transform="translate(822.979 1981)" fill="#57606f" stroke="#000" stroke-width="1"/>
    <path id="Path_1290948" data-name="Path 1290948" d="M8.176,3.734a1.916,1.916,0,0,1,1.917,1.918A1.855,1.855,0,0,1,8.176,7.569,1.856,1.856,0,0,1,6.258,5.652,1.917,1.917,0,0,1,8.176,3.734" transform="translate(822.979 1981)" fill="#fcd884" stroke="#000" stroke-width="1"/>
    <path id="Path_1290949" data-name="Path 1290949" d="M8.176,11.3a1.916,1.916,0,0,1,1.917,1.918A1.856,1.856,0,0,1,8.176,15.14a1.857,1.857,0,0,1-1.918-1.918A1.917,1.917,0,0,1,8.176,11.3" transform="translate(822.979 1981)" fill="#fcd884" stroke="#000" stroke-width="1"/>
    <path id="Path_1290950" data-name="Path 1290950" d="M8.176,18.874a1.916,1.916,0,0,1,1.917,1.918A1.856,1.856,0,0,1,8.176,22.71a1.857,1.857,0,0,1-1.918-1.918,1.917,1.917,0,0,1,1.918-1.918" transform="translate(822.979 1981)" fill="#fcd884" stroke="#000" stroke-width="1"/>
    <path id="Path_1290951" data-name="Path 1290951" d="M8.176,26.444a1.916,1.916,0,0,1,1.917,1.918A1.856,1.856,0,0,1,8.176,30.28a1.857,1.857,0,0,1-1.918-1.918,1.917,1.917,0,0,1,1.918-1.918" transform="translate(822.979 1981)" fill="#fcd884" stroke="#000" stroke-width="1"/>
    <path id="Path_1290952" data-name="Path 1290952" d="M8.176,34.015a1.916,1.916,0,0,1,1.917,1.918A1.855,1.855,0,0,1,8.176,37.85a1.856,1.856,0,0,1-1.918-1.917,1.917,1.917,0,0,1,1.918-1.918" transform="translate(822.979 1981)" fill="#fcd884" stroke="#000" stroke-width="1"/>
    <path id="Path_1290953" data-name="Path 1290953" d="M8.176,41.585a1.917,1.917,0,0,1,0,3.835A1.857,1.857,0,0,1,6.258,43.5a1.983,1.983,0,0,1,1.918-1.917" transform="translate(822.979 1981)" fill="#fcd884" stroke="#000" stroke-width="1"/>
    <path id="Path_1290954" data-name="Path 1290954" d="M39.163,12.616a5.047,5.047,0,1,1-5.047,5.047,5.047,5.047,0,0,1,5.047-5.047" transform="translate(822.979 1981)" fill="#ea8686" stroke="#000" stroke-width="1"/>
    <rect id="Rectangle_425262" data-name="Rectangle 425262" width="3.835" height="5.047" transform="translate(830.65 2033.99)" fill="#ea7e23" stroke="#000" stroke-width="1"/>
    <path id="Path_1290955" data-name="Path 1290955" d="M7.872,52.99v5.047H4.037a2.5,2.5,0,0,1-2.524-2.524A2.9,2.9,0,0,1,2.22,53.7a2.435,2.435,0,0,1,1.817-.707Z" transform="translate(822.979 1981)" fill="#e64c42" stroke="#000" stroke-width="1"/>
    <path id="Path_1290956" data-name="Path 1290956" d="M54.3,55.514l-6.359,2.523H11.4V52.991H47.944Z" transform="translate(822.979 1981)" fill="#3c3b3d" stroke="#000" stroke-width="1"/>
    <path id="Path_1290957" data-name="Path 1290957" d="M52.587,29.371a1.28,1.28,0,0,1,.4.909.983.983,0,0,1-.4.908,1.276,1.276,0,0,1-.909.4,1.337,1.337,0,0,1-1.312-1.312,1.1,1.1,0,0,1,.4-.909,1.283,1.283,0,0,1,.908-.4.984.984,0,0,1,.909.4" transform="translate(822.979 1981)" fill="#afb9d2" stroke="#000" stroke-width="1"/>
    <path id="Path_1290958" data-name="Path 1290958" d="M48.852,29.371a1.28,1.28,0,0,1,.4.909.984.984,0,0,1-.4.908,1.274,1.274,0,0,1-.908.4,1.337,1.337,0,0,1-1.313-1.312,1.1,1.1,0,0,1,.4-.909,1.284,1.284,0,0,1,.909-.4.982.982,0,0,1,.908.4" transform="translate(822.979 1981)" fill="#afb9d2" stroke="#000" stroke-width="1"/>
    <path id="Path_1290959" data-name="Path 1290959" d="M48.852,12.919a1.28,1.28,0,0,1,.4.908.985.985,0,0,1-.4.909,1.278,1.278,0,0,1-.908.4,1.337,1.337,0,0,1-1.313-1.313,1.1,1.1,0,0,1,.4-.908,1.226,1.226,0,0,1,1.817,0" transform="translate(822.979 1981)" fill="#afb9d2" stroke="#000" stroke-width="1"/>
    <path id="Path_1290960" data-name="Path 1290960" d="M48.852,16.755a1.28,1.28,0,0,1,.4.908.982.982,0,0,1-.4.908,1.407,1.407,0,0,1-.908.3,1.336,1.336,0,0,1-1.313-1.311,1.1,1.1,0,0,1,.4-.91,1.284,1.284,0,0,1,.909-.4,1.059,1.059,0,0,1,.908.5" transform="translate(822.979 1981)" fill="#afb9d2" stroke="#000" stroke-width="1"/>
    <path id="Path_1290961" data-name="Path 1290961" d="M45.017,29.371a1.28,1.28,0,0,1,.4.909.984.984,0,0,1-.4.908,1.276,1.276,0,0,1-.908.4A1.337,1.337,0,0,1,42.8,30.28a1.1,1.1,0,0,1,.4-.909,1.284,1.284,0,0,1,.909-.4.983.983,0,0,1,.908.4" transform="translate(822.979 1981)" fill="#afb9d2" stroke="#000" stroke-width="1"/>
    <path id="Path_1290962" data-name="Path 1290962" d="M45.017,33.106a1.276,1.276,0,0,1,.4.908.983.983,0,0,1-.4.908,1.276,1.276,0,0,1-.908.4A1.338,1.338,0,0,1,42.8,34.014a1.094,1.094,0,0,1,.4-.908,1.223,1.223,0,0,1,1.817,0" transform="translate(822.979 1981)" fill="#afb9d2" stroke="#000" stroke-width="1"/>
    <path id="Path_1290963" data-name="Path 1290963" d="M45.017,36.941a1.28,1.28,0,0,1,.4.908.985.985,0,0,1-.4.909,1.28,1.28,0,0,1-.908.4A1.337,1.337,0,0,1,42.8,37.849a1.1,1.1,0,0,1,.4-.908,1.284,1.284,0,0,1,.909-.4.983.983,0,0,1,.908.4" transform="translate(822.979 1981)" fill="#afb9d2" stroke="#000" stroke-width="1"/>
    <path id="Path_1290964" data-name="Path 1290964" d="M41.282,36.941a1.28,1.28,0,0,1,.4.908.985.985,0,0,1-.4.909,1.28,1.28,0,0,1-.909.4,1.337,1.337,0,0,1-1.312-1.313,1.1,1.1,0,0,1,.4-.908,1.283,1.283,0,0,1,.908-.4.984.984,0,0,1,.909.4" transform="translate(822.979 1981)" fill="#afb9d2" stroke="#000" stroke-width="1"/>
    <path id="Path_1290965" data-name="Path 1290965" d="M37.447,36.941a1.279,1.279,0,0,1,.4.908.984.984,0,0,1-.4.909,1.28,1.28,0,0,1-.909.4,1.337,1.337,0,0,1-1.312-1.313,1.1,1.1,0,0,1,.4-.908,1.283,1.283,0,0,1,.908-.4.984.984,0,0,1,.909.4" transform="translate(822.979 1981)" fill="#afb9d2" stroke="#000" stroke-width="1"/>
    <path id="Path_1290966" data-name="Path 1290966" d="M33.712,36.941a1.28,1.28,0,0,1,.4.908.985.985,0,0,1-.4.909,1.407,1.407,0,0,1-.908.3,1.336,1.336,0,0,1-1.313-1.312,1.1,1.1,0,0,1,.4-.909,1.28,1.28,0,0,1,.909-.4,1.059,1.059,0,0,1,.908.505" transform="translate(822.979 1981)" fill="#afb9d2" stroke="#000" stroke-width="1"/>
    <path id="Path_1290967" data-name="Path 1290967" d="M31.188,25.536a1.28,1.28,0,0,1,.4.908.982.982,0,0,1-.4.908,1.274,1.274,0,0,1-.908.405,1.336,1.336,0,0,1-1.312-1.313,1.094,1.094,0,0,1,.4-.908,1.224,1.224,0,0,1,1.817,0" transform="translate(822.979 1981)" fill="#afb9d2" stroke="#000" stroke-width="1"/>
    <path id="Path_1290968" data-name="Path 1290968" d="M27.353,25.536a1.28,1.28,0,0,1,.4.908.982.982,0,0,1-.4.908,1.274,1.274,0,0,1-.908.405,1.337,1.337,0,0,1-1.313-1.313,1.1,1.1,0,0,1,.4-.908,1.224,1.224,0,0,1,1.817,0" transform="translate(822.979 1981)" fill="#afb9d2" stroke="#000" stroke-width="1"/>
    <path id="Path_1290969" data-name="Path 1290969" d="M23.619,25.536a1.28,1.28,0,0,1,.4.908.982.982,0,0,1-.4.908,1.277,1.277,0,0,1-.909.405A1.337,1.337,0,0,1,21.4,26.444a1.1,1.1,0,0,1,.4-.908,1.224,1.224,0,0,1,1.817,0" transform="translate(822.979 1981)" fill="#afb9d2" stroke="#000" stroke-width="1"/>
    <path id="Path_1290970" data-name="Path 1290970" d="M38.456,35.327H28.968a1.313,1.313,0,0,1,0-2.625h9.488a.524.524,0,0,0,.4-.2.778.778,0,0,0,.2-.4.651.651,0,0,0-.6-.606H35.933a3.129,3.129,0,0,1,0-6.258H48.549c.2,0,.4-.1.4-.2a.763.763,0,0,0,.2-.4.652.652,0,0,0-.606-.606H25.839A4.48,4.48,0,0,1,21.4,19.581a4.48,4.48,0,0,1,4.441-4.441h2.523c.2,0,.4-.1.4-.2a.76.76,0,0,0,.2-.4.651.651,0,0,0-.606-.605H23.921a1.313,1.313,0,0,1,0-2.625h4.441a3.129,3.129,0,1,1,0,6.258H25.839a1.929,1.929,0,0,0-1.413,3.23,1.67,1.67,0,0,0,1.312.505h22.71a3.129,3.129,0,1,1,0,6.258H35.933a.651.651,0,0,0-.606.6.525.525,0,0,0,.2.4.762.762,0,0,0,.4.2h2.523a3.14,3.14,0,0,1,2.22,5.349,2.653,2.653,0,0,1-2.22,1.212" transform="translate(822.979 1981)" fill="#313a52"/>
    <path id="Path_1290971" data-name="Path 1290971" d="M55.514,3.734H24.023a1.312,1.312,0,1,0,0,2.624H55.615V3.734Z" transform="translate(822.979 1981)" fill="#afb9d2" stroke="#000" stroke-width="1"/>
    <path id="Path_1290972" data-name="Path 1290972" d="M49.256,44.108A1.335,1.335,0,0,0,47.944,42.8H16.452v2.623H47.944a1.335,1.335,0,0,0,1.312-1.311" transform="translate(822.979 1981)" fill="#afb9d2" stroke="#000" stroke-width="1"/>
    <path id="Path_1290973" data-name="Path 1290973" d="M26.849,31.491a2.523,2.523,0,1,1-2.523,2.523,2.5,2.5,0,0,1,2.523-2.523" transform="translate(822.979 1981)" fill="#ea8686" stroke="#000" stroke-width="1"/>
  </g>
</svg>
