<svg xmlns="http://www.w3.org/2000/svg" xmlns:xlink="http://www.w3.org/1999/xlink" width="118" height="118" viewBox="0 0 118 118">
  <defs>
    <filter id="Rectangle_411831" x="0" y="0" width="118" height="118" filterUnits="userSpaceOnUse">
      <feOffset dy="3" input="SourceAlpha"/>
      <feGaussianBlur stdDeviation="3" result="blur"/>
      <feFlood flood-opacity="0.161"/>
      <feComposite operator="in" in2="blur"/>
      <feComposite in="SourceGraphic"/>
    </filter>
  </defs>
  <g id="Group_1223937" data-name="Group 1223937" transform="translate(-791.781 -1956)">
    <g id="Group_1203409" data-name="Group 1203409" transform="translate(465 -1896)">
      <g transform="matrix(1, 0, 0, 1, 326.78, 3852)" filter="url(#Rectangle_411831)">
        <g id="Rectangle_411831-2" data-name="Rectangle 411831" transform="translate(9 6)" fill="#8fe8d5" stroke="#fff" stroke-width="2">
          <path d="M5,0H68a32,32,0,0,1,32,32V95a5,5,0,0,1-5,5H32A32,32,0,0,1,0,68V5A5,5,0,0,1,5,0Z" stroke="none"/>
          <path d="M5,1H68A31,31,0,0,1,99,32V95a4,4,0,0,1-4,4H32A31,31,0,0,1,1,68V5A4,4,0,0,1,5,1Z" fill="none"/>
        </g>
      </g>
    </g>
    <path id="Path_1260076" data-name="Path 1260076" d="M16.614.687H.856V7.046h11.25L.856,18.219,5.4,22.735,16.614,11.6V22.735h6.441V.687Z" transform="translate(799.924 2039.266)" fill="#1f1321" fill-rule="evenodd"/>
    <path id="Path_1260092" data-name="Path 1260092" d="M5.755,17.459H17.742V12.622H9.184l8.558-8.5L14.284.687,5.755,9.157V.687H.856V17.459Z" transform="translate(883.039 1961.314)" fill="#1f1321" fill-rule="evenodd"/>
    <rect id="Rectangle_425264" data-name="Rectangle 425264" width="15.14" height="3.835" transform="translate(860.396 1983.313)" fill="#e8a664" stroke="#000" stroke-width="1"/>
    <path id="Path_1290974" data-name="Path 1290974" d="M5.047,0V5.046H23.922L20.187,0Z" transform="translate(823.857 1982.001)" fill="#e8a664" stroke="#000" stroke-width="1"/>
    <rect id="Rectangle_425265" data-name="Rectangle 425265" width="58.037" height="35.327" transform="translate(823.857 1986.846)" fill="#febe76" stroke="#000" stroke-width="1"/>
    <path id="Path_1290975" data-name="Path 1290975" d="M18.875,22.509V47.742H45.219v.3a3.735,3.735,0,0,0,1.211,7.268c3.634-.1,6.561-2.624,6.561-6.258V22.509Z" transform="translate(823.857 1982.001)" fill="#d7deed" stroke="#000" stroke-width="1"/>
    <path id="Path_1290976" data-name="Path 1290976" d="M42.695,51.477a3.853,3.853,0,0,1,2.726-3.532c.4-.1.807-.2,1.312-.3H18.875a3.749,3.749,0,0,0-3.836,3.734A3.255,3.255,0,0,0,16.25,54a3.964,3.964,0,0,0,2.826,1.111H46.43a3.642,3.642,0,0,1-3.735-3.634" transform="translate(823.857 1982.001)" fill="#afb9d2" stroke="#000" stroke-width="1"/>
    <rect id="Rectangle_425266" data-name="Rectangle 425266" width="45.42" height="5.047" transform="translate(830.115 1993.104)" fill="#3c3b3d" stroke="#000" stroke-width="1"/>
    <path id="Path_1290977" data-name="Path 1290977" d="M38.254,27.556A4.7,4.7,0,0,0,33.611,32.2H28.968v9.286h9.286V36.741A4.7,4.7,0,0,0,42.9,32.1a4.61,4.61,0,0,0-4.643-4.542" transform="translate(823.857 1982.001)" fill="#ef727a" stroke="#000" stroke-width="1"/>
    <path id="Path_1290978" data-name="Path 1290978" d="M38.254,32.2V36.74A4.7,4.7,0,0,1,33.611,32.1h4.643Z" transform="translate(823.857 1982.001)" fill="#da5359" stroke="#000" stroke-width="1"/>
    <path id="Path_1290979" data-name="Path 1290979" d="M48.751,26.646a1.285,1.285,0,0,1,.4.91.985.985,0,0,1-.4.908,1.274,1.274,0,0,1-.908.4,1.337,1.337,0,0,1-1.313-1.312,1.1,1.1,0,0,1,.4-.91,1.226,1.226,0,0,1,1.817,0" transform="translate(823.857 1982.001)" fill="#afb9d2" stroke="#000" stroke-width="1"/>
    <path id="Path_1290980" data-name="Path 1290980" d="M48.751,30.382a1.276,1.276,0,0,1,.4.908.983.983,0,0,1-.4.908,1.274,1.274,0,0,1-.908.4A1.338,1.338,0,0,1,46.53,31.29a1.094,1.094,0,0,1,.4-.908,1.224,1.224,0,0,1,1.817,0" transform="translate(823.857 1982.001)" fill="#afb9d2" stroke="#000" stroke-width="1"/>
    <path id="Path_1290981" data-name="Path 1290981" d="M48.751,34.217a1.28,1.28,0,0,1,.4.908.985.985,0,0,1-.4.909,1.278,1.278,0,0,1-.908.4,1.337,1.337,0,0,1-1.313-1.313,1.1,1.1,0,0,1,.4-.908,1.226,1.226,0,0,1,1.817,0" transform="translate(823.857 1982.001)" fill="#afb9d2" stroke="#000" stroke-width="1"/>
    <path id="Path_1290982" data-name="Path 1290982" d="M48.751,37.951a1.28,1.28,0,0,1,.4.909.984.984,0,0,1-.4.908,1.274,1.274,0,0,1-.908.4A1.337,1.337,0,0,1,46.53,38.86a1.1,1.1,0,0,1,.4-.909,1.226,1.226,0,0,1,1.817,0" transform="translate(823.857 1982.001)" fill="#afb9d2" stroke="#000" stroke-width="1"/>
    <path id="Path_1290983" data-name="Path 1290983" d="M48.751,41.787a1.28,1.28,0,0,1,.4.908,1.094,1.094,0,0,1-.4.908,1.274,1.274,0,0,1-.908.4,1.337,1.337,0,0,1-1.313-1.313,1.1,1.1,0,0,1,.4-.908,1.226,1.226,0,0,1,1.817,0" transform="translate(823.857 1982.001)" fill="#afb9d2" stroke="#000" stroke-width="1"/>
    <path id="Path_1290984" data-name="Path 1290984" d="M24.83,26.646a1.285,1.285,0,0,1,.4.91.985.985,0,0,1-.4.908,1.276,1.276,0,0,1-.908.4,1.337,1.337,0,0,1-1.313-1.312,1.1,1.1,0,0,1,.4-.91,1.226,1.226,0,0,1,1.817,0" transform="translate(823.857 1982.001)" fill="#afb9d2" stroke="#000" stroke-width="1"/>
    <path id="Path_1290985" data-name="Path 1290985" d="M24.83,30.382a1.276,1.276,0,0,1,.4.908.983.983,0,0,1-.4.908,1.276,1.276,0,0,1-.908.4,1.338,1.338,0,0,1-1.313-1.313,1.094,1.094,0,0,1,.4-.908,1.224,1.224,0,0,1,1.817,0" transform="translate(823.857 1982.001)" fill="#afb9d2" stroke="#000" stroke-width="1"/>
    <path id="Path_1290986" data-name="Path 1290986" d="M24.83,34.217a1.28,1.28,0,0,1,.4.908.985.985,0,0,1-.4.909,1.28,1.28,0,0,1-.908.4,1.337,1.337,0,0,1-1.313-1.313,1.1,1.1,0,0,1,.4-.908,1.226,1.226,0,0,1,1.817,0" transform="translate(823.857 1982.001)" fill="#afb9d2" stroke="#000" stroke-width="1"/>
    <path id="Path_1290987" data-name="Path 1290987" d="M24.83,37.951a1.28,1.28,0,0,1,.4.909.984.984,0,0,1-.4.908,1.276,1.276,0,0,1-.908.4,1.337,1.337,0,0,1-1.313-1.312,1.1,1.1,0,0,1,.4-.909,1.226,1.226,0,0,1,1.817,0" transform="translate(823.857 1982.001)" fill="#afb9d2" stroke="#000" stroke-width="1"/>
    <path id="Path_1290988" data-name="Path 1290988" d="M24.83,41.787a1.28,1.28,0,0,1,.4.908,1.094,1.094,0,0,1-.4.908,1.276,1.276,0,0,1-.908.4,1.337,1.337,0,0,1-1.313-1.313,1.1,1.1,0,0,1,.4-.908,1.226,1.226,0,0,1,1.817,0" transform="translate(823.857 1982.001)" fill="#afb9d2" stroke="#000" stroke-width="1"/>
    <path id="Path_1290989" data-name="Path 1290989" d="M13.424,44.311a1.28,1.28,0,0,1,.4.908,1.094,1.094,0,0,1-.4.908,1.274,1.274,0,0,1-.908.405A1.336,1.336,0,0,1,11.2,45.219a1.092,1.092,0,0,1,.4-.908,1.222,1.222,0,0,1,1.816,0" transform="translate(823.857 1982.001)" fill="#3c3b3d" stroke="#000" stroke-width="1"/>
    <path id="Path_1290990" data-name="Path 1290990" d="M11.305,22.509H6.259a1.312,1.312,0,1,1,0-2.624h5.046a1.312,1.312,0,0,1,0,2.624" transform="translate(823.857 1982.001)" fill="#e8a664" stroke="#000" stroke-width="1"/>
    <path id="Path_1290991" data-name="Path 1290991" d="M10.094,26.243H6.259a1.312,1.312,0,1,1,0-2.624h3.835a1.336,1.336,0,0,1,1.312,1.312,1.4,1.4,0,0,1-1.312,1.312" transform="translate(823.857 1982.001)" fill="#e8a664" stroke="#000" stroke-width="1"/>
    <path id="Path_1290992" data-name="Path 1290992" d="M11.305,30.079H6.259a1.313,1.313,0,1,1,0-2.625h5.046a1.313,1.313,0,0,1,0,2.625" transform="translate(823.857 1982.001)" fill="#e8a664" stroke="#000" stroke-width="1"/>
    <path id="Path_1290993" data-name="Path 1290993" d="M11.305,33.813H6.259a1.312,1.312,0,1,1,0-2.623h5.046a1.311,1.311,0,1,1,0,2.623" transform="translate(823.857 1982.001)" fill="#e8a664" stroke="#000" stroke-width="1"/>
  </g>
</svg>
