<svg xmlns="http://www.w3.org/2000/svg" xmlns:xlink="http://www.w3.org/1999/xlink" width="118" height="118" viewBox="0 0 118 118">
  <defs>
    <filter id="Rectangle_411831" x="0" y="0" width="118" height="118" filterUnits="userSpaceOnUse">
      <feOffset dy="3" input="SourceAlpha"/>
      <feGaussianBlur stdDeviation="3" result="blur"/>
      <feFlood flood-opacity="0.161"/>
      <feComposite operator="in" in2="blur"/>
      <feComposite in="SourceGraphic"/>
    </filter>
    <clipPath id="clip-path">
      <rect id="Rectangle_425300" data-name="Rectangle 425300" width="7.493" height="14.925" fill="#fff"/>
    </clipPath>
  </defs>
  <g id="Group_1223291" data-name="Group 1223291" transform="translate(-791.781 -1956)">
    <g id="Group_1203409" data-name="Group 1203409" transform="translate(465 -1896)">
      <g transform="matrix(1, 0, 0, 1, 326.78, 3852)" filter="url(#Rectangle_411831)">
        <g id="Rectangle_411831-2" data-name="Rectangle 411831" transform="translate(9 6)" fill="#d9aef1" stroke="#fff" stroke-width="2">
          <path d="M5,0H68a32,32,0,0,1,32,32V95a5,5,0,0,1-5,5H32A32,32,0,0,1,0,68V5A5,5,0,0,1,5,0Z" stroke="none"/>
          <path d="M5,1H68A31,31,0,0,1,99,32V95a4,4,0,0,1-4,4H32A31,31,0,0,1,1,68V5A4,4,0,0,1,5,1Z" fill="none"/>
        </g>
      </g>
      <g id="Group_1224010" data-name="Group 1224010" transform="translate(-538.246 -4100.607)">
        <path id="Path_1291141" data-name="Path 1291141" d="M134.284,199.428A10.424,10.424,0,1,1,123.86,189a10.424,10.424,0,0,1,10.424,10.424" transform="translate(799.167 7813.18)" fill="#ffad00" stroke="#000" stroke-width="2"/>
        <path id="Path_1291143" data-name="Path 1291143" d="M50.678,105.38a25.435,25.435,0,1,1-28.37-28.37V87.437A15.141,15.141,0,1,0,40.251,105.38Z" transform="translate(897.593 7910.355)" fill="#a6e2d6" stroke="#000" stroke-width="2"/>
        <path id="Path_1291144" data-name="Path 1291144" d="M248.147,32.307h-10.19A25.447,25.447,0,0,0,215.84,10.191V0a35.577,35.577,0,0,1,32.307,32.306" transform="translate(710.313 7977.174)" fill="#fe646f" stroke="#000" stroke-width="2"/>
        <path id="Path_1291145" data-name="Path 1291145" d="M237.957,99.127H227.531A15.16,15.16,0,0,0,215.84,87.438V77.011a25.447,25.447,0,0,1,22.117,22.116" transform="translate(710.313 7910.354)" fill="#fe646f" stroke="#000" stroke-width="2"/>
        <g id="Group_1224012" data-name="Group 1224012" transform="translate(919.185 8005.146)">
          <g id="Group_1224011" data-name="Group 1224011" clip-path="url(#clip-path)">
            <path id="Path_1291168" data-name="Path 1291168" d="M4.267,6.415H3.238a1.147,1.147,0,0,1,0-2.294H4.245c.835,0,1.184,1.088,1.2,1.127a1.048,1.048,0,0,0,2.01-.591A3.629,3.629,0,0,0,4.794,2.073V1.048a1.048,1.048,0,0,0-2.1,0V2.071A3.243,3.243,0,0,0,3.238,8.51H4.257a1.147,1.147,0,0,1,0,2.294H3.25c-.83,0-1.18-1.074-1.2-1.133a1.048,1.048,0,0,0-2.009.6A3.631,3.631,0,0,0,2.7,12.851v1.025a1.048,1.048,0,0,0,2.1,0V12.854q.1-.016.189-.038h0a3.242,3.242,0,0,0-.717-6.4" transform="translate(0)" fill="#fff"/>
          </g>
        </g>
      </g>
    </g>
    <path id="Path_1260076" data-name="Path 1260076" d="M16.614.687H.856V7.046h11.25L.856,18.219,5.4,22.735,16.614,11.6V22.735h6.441V.687Z" transform="translate(799.924 2039.266)" fill="#1f1321" fill-rule="evenodd"/>
    <path id="Path_1260092" data-name="Path 1260092" d="M5.755,17.459H17.742V12.622H9.184l8.558-8.5L14.284.687,5.755,9.157V.687H.856V17.459Z" transform="translate(883.039 1961.314)" fill="#1f1321" fill-rule="evenodd"/>
  </g>
</svg>
