<svg xmlns="http://www.w3.org/2000/svg" xmlns:xlink="http://www.w3.org/1999/xlink" width="118" height="118" viewBox="0 0 118 118">
  <defs>
    <filter id="Rectangle_411831" x="0" y="0" width="118" height="118" filterUnits="userSpaceOnUse">
      <feOffset dy="3" input="SourceAlpha"/>
      <feGaussianBlur stdDeviation="3" result="blur"/>
      <feFlood flood-opacity="0.161"/>
      <feComposite operator="in" in2="blur"/>
      <feComposite in="SourceGraphic"/>
    </filter>
  </defs>
  <g id="Group_1224024" data-name="Group 1224024" transform="translate(-791.781 -1956)">
    <g id="Group_1203409" data-name="Group 1203409" transform="translate(465 -1896)">
      <g transform="matrix(1, 0, 0, 1, 326.78, 3852)" filter="url(#Rectangle_411831)">
        <g id="Rectangle_411831-2" data-name="Rectangle 411831" transform="translate(9 6)" fill="#d9aef1" stroke="#fff" stroke-width="2">
          <path d="M5,0H68a32,32,0,0,1,32,32V95a5,5,0,0,1-5,5H32A32,32,0,0,1,0,68V5A5,5,0,0,1,5,0Z" stroke="none"/>
          <path d="M5,1H68A31,31,0,0,1,99,32V95a4,4,0,0,1-4,4H32A31,31,0,0,1,1,68V5A4,4,0,0,1,5,1Z" fill="none"/>
        </g>
      </g>
      <g id="Group_1224025" data-name="Group 1224025" transform="translate(-1222.062 -4495.129)">
        <path id="Path_1291190" data-name="Path 1291190" d="M95.034,83.923l-.085-.573h0a61.6,61.6,0,0,0-2.865-11.82,21.133,21.133,0,0,1-17.257,1.45l-.01,0q-.174-.06-.34-.12l-.014-.005a18.294,18.294,0,0,1-2.848-1.29l0,0-.035-.021h0l-.012-.007A61.6,61.6,0,0,0,68.7,83.35h0l-.085.573c-1.662,11.352-2.189,16.844-2.189,16.844h30.8s-.526-5.492-2.189-16.844" transform="translate(1527.021 8307.121)" fill="#e0dfe1" stroke="#000" stroke-linecap="round" stroke-linejoin="round" stroke-width="2"/>
        <path id="Path_1291192" data-name="Path 1291192" d="M11.7,154.86l-.085.573c-1.662,11.352-2.189,16.844-2.189,16.844H0c.6-14.763,7.777-17.2,11.7-17.417" transform="translate(1584.02 8235.61)" fill="#da1d1c" stroke="#000" stroke-linecap="round" stroke-linejoin="round" stroke-width="2"/>
        <path id="Path_1291196" data-name="Path 1291196" d="M57.023,329.164a5.012,5.012,0,0,0-5.77-3.8c-.345.065-3.272.786-3.272,1.251A5.5,5.5,0,0,0,39.6,321.7c-.512.289-2.668,1.868-2.668,2.3v-8.776H30.612v8.776c0-.436-2.155-2.014-2.667-2.3a5.5,5.5,0,0,0-8.386,4.916c0-.465-2.928-1.186-3.271-1.251a4.789,4.789,0,0,0-1.4-.053h0l-.029,0-.1.013-.121.017-.1.017-.124.024-.093.019c-.052.012-.1.025-.157.038l-.094.025c-.055.015-.11.031-.165.048l-.086.028-.124.043-.09.034-.118.047-.088.037-.124.056-.076.035q-.095.046-.187.1l-.065.036-.126.072-.078.047-.109.069-.078.051-.108.075-.071.051c-.043.031-.085.064-.127.1l-.046.035c-.055.044-.109.089-.162.136l-.057.052-.1.1-.062.06-.095.1-.059.061c-.033.036-.066.072-.1.108l-.047.053q-.07.081-.135.166l-.021.027q-.056.072-.108.147l-.041.06q-.041.06-.081.121l-.042.066c-.026.041-.05.083-.074.125l-.036.063c-.028.051-.055.1-.081.155l-.019.037q-.048.1-.091.2l-.019.048q-.032.076-.061.154l-.025.069q-.025.07-.047.14l-.022.073c-.014.049-.028.1-.041.148-.006.022-.011.043-.017.065-.017.071-.033.143-.046.215-.831,4.455,4.1,6.6,7.878,6.6H49.143c3.783,0,8.711-2.146,7.879-6.6" transform="translate(1575.073 8097.988)" fill="#ffad00" stroke="#000" stroke-linecap="round" stroke-linejoin="round" stroke-width="2"/>
        <path id="Path_1291191" data-name="Path 1291191" d="M279.245,172.277h-9.421s-.526-5.492-2.189-16.844l-.085-.573c3.918.218,11.094,2.655,11.7,17.417" transform="translate(1354.421 8235.61)" fill="#da1d1c" stroke="#000" stroke-linecap="round" stroke-linejoin="round" stroke-width="2"/>
        <path id="Path_1291193" data-name="Path 1291193" d="M146.956,157.861a5.553,5.553,0,1,1-10.862-1.631,5.555,5.555,0,0,0,10.619,0,5.537,5.537,0,0,1,.244,1.631" transform="translate(1467.44 8234.436)" fill="#37393b"/>
        <path id="Path_1291194" data-name="Path 1291194" d="M148.189,132.5a5.555,5.555,0,0,1-10.619,0,5.555,5.555,0,0,1,10.619,0" transform="translate(1465.964 8258.163)" fill="#43494c"/>
        <path id="Path_1291195" data-name="Path 1291195" d="M123.182,10.146a26.006,26.006,0,0,0-2.633-5.359h0l-.011-.016-.053-.078q-.1-.148-.2-.292l-.071-.1q-.122-.17-.247-.335l-.056-.073q-.106-.138-.214-.272l-.07-.087q-.129-.157-.26-.309l-.062-.07q-.112-.127-.226-.249l-.069-.075q-.136-.143-.274-.281l-.067-.065q-.118-.115-.237-.224l-.069-.064q-.143-.129-.288-.25L118,1.889q-.124-.1-.25-.2l-.068-.052q-.15-.113-.3-.218l-.078-.053q-.131-.089-.265-.173l-.065-.041q-.157-.1-.317-.185l-.083-.045q-.14-.076-.283-.146l-.06-.03c-.11-.053-.221-.1-.333-.15l-.087-.036q-.151-.062-.3-.117l-.051-.019c-.116-.041-.232-.078-.35-.113l-.09-.026c-.109-.031-.219-.06-.33-.086l-.038-.01c-.122-.028-.244-.052-.368-.074L114.183.1c-.119-.02-.239-.037-.361-.051l-.022,0c-.128-.014-.257-.024-.387-.032l-.1-.005c-.131-.007-.263-.011-.4-.011-4.807,0-8.072,4.24-10.261,10.146l.012.007h0l.035.021,0,0a18.261,18.261,0,0,0,2.848,1.29l.014.005q.166.06.34.12l.01,0q.284.1.589.194h0a21.512,21.512,0,0,0,6.407,1.005,21.487,21.487,0,0,0,10.261-2.648" transform="translate(1495.922 8368.505)" fill="#d6030d" stroke="#000" stroke-linecap="round" stroke-linejoin="round" stroke-width="2"/>
        <path id="Path_1291197" data-name="Path 1291197" d="M110.95,277.65h-3.17l2.5,5.331H124.35l2.5-5.331Z" transform="translate(1491.528 8130.238)" fill="#d6030d" stroke="#000" stroke-linecap="round" stroke-linejoin="round" stroke-width="2"/>
      </g>
    </g>
    <path id="Path_1260076" data-name="Path 1260076" d="M16.614.687H.856V7.046h11.25L.856,18.219,5.4,22.735,16.614,11.6V22.735h6.441V.687Z" transform="translate(799.924 2039.266)" fill="#1f1321" fill-rule="evenodd"/>
    <path id="Path_1260092" data-name="Path 1260092" d="M5.755,17.459H17.742V12.622H9.184l8.558-8.5L14.284.687,5.755,9.157V.687H.856V17.459Z" transform="translate(883.039 1961.314)" fill="#1f1321" fill-rule="evenodd"/>
  </g>
</svg>
