<svg xmlns="http://www.w3.org/2000/svg" xmlns:xlink="http://www.w3.org/1999/xlink" width="118" height="118" viewBox="0 0 118 118">
  <defs>
    <filter id="Rectangle_411831" x="0" y="0" width="118" height="118" filterUnits="userSpaceOnUse">
      <feOffset dy="3" input="SourceAlpha"/>
      <feGaussianBlur stdDeviation="3" result="blur"/>
      <feFlood flood-opacity="0.161"/>
      <feComposite operator="in" in2="blur"/>
      <feComposite in="SourceGraphic"/>
    </filter>
  </defs>
  <g id="Group_1223282" data-name="Group 1223282" transform="translate(-791.781 -1956)">
    <g id="Group_1203409" data-name="Group 1203409" transform="translate(465 -1896)">
      <g transform="matrix(1, 0, 0, 1, 326.78, 3852)" filter="url(#Rectangle_411831)">
        <g id="Rectangle_411831-2" data-name="Rectangle 411831" transform="translate(9 6)" fill="#8fe8d5" stroke="#fff" stroke-width="2">
          <path d="M5,0H68a32,32,0,0,1,32,32V95a5,5,0,0,1-5,5H32A32,32,0,0,1,0,68V5A5,5,0,0,1,5,0Z" stroke="none"/>
          <path d="M5,1H68A31,31,0,0,1,99,32V95a4,4,0,0,1-4,4H32A31,31,0,0,1,1,68V5A4,4,0,0,1,5,1Z" fill="none"/>
        </g>
      </g>
      <g id="Artboard11" transform="translate(321.054 3866.951)">
        <g id="Group_1203415" data-name="Group 1203415" transform="translate(34.447 7)">
          <g id="Group_1203414" data-name="Group 1203414" transform="translate(1.098 1.098)">
            <g id="Group_1203410" data-name="Group 1203410" transform="translate(11.904)">
              <path id="Path_1260077" data-name="Path 1260077" d="M165.184,78.047A2.863,2.863,0,0,1,162.33,80.9H132a2.862,2.862,0,0,1-2.854-2.854V17.854A2.862,2.862,0,0,1,132,15H162.33a2.862,2.862,0,0,1,2.854,2.854Z" transform="translate(-129.151 -15)" fill="#d8ecfe" fill-rule="evenodd"/>
              <path id="Path_1260078" data-name="Path 1260078" d="M360.819,15h1.373a2.862,2.862,0,0,1,2.853,2.854V78.047a2.863,2.863,0,0,1-2.853,2.854h-1.373a2.863,2.863,0,0,0,2.854-2.854V17.854A2.862,2.862,0,0,0,360.819,15Z" transform="translate(-329.012 -15)" fill="#c4e2ff" fill-rule="evenodd"/>
              <path id="Path_1260079" data-name="Path 1260079" d="M186.454,15h20.3l-1.19,3.663a.836.836,0,0,1-.8.578H188.439a.836.836,0,0,1-.8-.578Z" transform="translate(-178.587 -15)" fill="#eceff1" fill-rule="evenodd"/>
              <path id="Path_1260080" data-name="Path 1260080" d="M206.075,15h.678l-1.19,3.663a.836.836,0,0,1-.8.578H188.439a.836.836,0,0,1-.8-.578L186.454,15h.678L188,17.768a.807.807,0,0,0,.764.578h15.687a.807.807,0,0,0,.764-.578Z" transform="translate(-178.587 -15)" fill="#d1d1d6" fill-rule="evenodd"/>
              <path id="Path_1260081" data-name="Path 1260081" d="M230.35,433.443h5.011a1.874,1.874,0,1,1,0,3.749H230.35a1.874,1.874,0,1,1,0-3.749Z" transform="translate(-214.839 -375.993)" fill="#a79ba7" fill-rule="evenodd"/>
            </g>
            <g id="Group_1203411" data-name="Group 1203411" transform="translate(37.509 7.046)">
              <path id="Path_1260082" data-name="Path 1260082" d="M336.505,79.765V68.556a2.242,2.242,0,0,0-2.238-2.238h-16.38a2.242,2.242,0,0,0-2.238,2.238v11.21A2.24,2.24,0,0,0,317.888,82h1.893v2.851a.686.686,0,0,0,1.182.476l3.2-3.327h10.109A2.239,2.239,0,0,0,336.505,79.765Z" transform="translate(-315.65 -66.318)" fill="#6cf5c2" fill-rule="evenodd"/>
              <path id="Path_1260083" data-name="Path 1260083" d="M346.033,85.085,349,82h1.373l-3.2,3.327a.686.686,0,0,1-1.141-.242ZM359.106,82a2.239,2.239,0,0,0,2.238-2.235V68.556a2.242,2.242,0,0,0-2.238-2.238h1.373a2.242,2.242,0,0,1,2.238,2.238v11.21A2.239,2.239,0,0,1,360.479,82Z" transform="translate(-341.862 -66.318)" fill="#00e499" fill-rule="evenodd"/>
            </g>
            <g id="Group_1203412" data-name="Group 1203412" transform="translate(33.054 32.95)">
              <path id="Path_1260084" data-name="Path 1260084" d="M284.557,255h18.472a1.361,1.361,0,0,1,1.355,1.355v15.756a1.362,1.362,0,0,1-1.355,1.361H284.557a1.362,1.362,0,0,1-1.355-1.361V256.355A1.361,1.361,0,0,1,284.557,255Z" transform="translate(-283.202 -255)" fill="#8ac9fe" fill-rule="evenodd"/>
              <path id="Path_1260085" data-name="Path 1260085" d="M417.614,255h1.373a1.361,1.361,0,0,1,1.355,1.355v15.756a1.362,1.362,0,0,1-1.355,1.361h-1.373a1.362,1.362,0,0,0,1.355-1.361V256.355A1.361,1.361,0,0,0,417.614,255Z" transform="translate(-399.16 -255)" fill="#60b7ff" fill-rule="evenodd"/>
              <path id="Path_1260086" data-name="Path 1260086" d="M304.384,310.36V314.7a1.362,1.362,0,0,1-1.355,1.361H284.557A1.362,1.362,0,0,1,283.2,314.7v-3.894l5.759-4.775a.687.687,0,0,1,.946.067l2.933,3.229a.687.687,0,0,0,.971.045l5.286-4.826a.686.686,0,0,1,1.013.1Z" transform="translate(-283.202 -297.592)" fill="#837683" fill-rule="evenodd"/>
              <path id="Path_1260087" data-name="Path 1260087" d="M418.969,334.627l1.373,1.836v4.342a1.362,1.362,0,0,1-1.355,1.361h-1.373a1.362,1.362,0,0,0,1.355-1.361Z" transform="translate(-399.16 -323.695)" fill="#685e68" fill-rule="evenodd"/>
            </g>
            <g id="Group_1203413" data-name="Group 1203413" transform="translate(0 17.165)">
              <circle id="Ellipse_12345" data-name="Ellipse 12345" cx="11.904" cy="11.904" r="11.904" fill="#fe646f"/>
              <path id="Path_1260088" data-name="Path 1260088" d="M124.152,140.045q.341-.019.686-.02a11.9,11.9,0,0,1,0,23.808q-.346,0-.686-.019a11.9,11.9,0,0,0,0-23.769Z" transform="translate(-112.934 -140.025)" fill="#fd4755" fill-rule="evenodd"/>
              <path id="Path_1260089" data-name="Path 1260089" d="M108.376,189.015a1.637,1.637,0,0,1,0,2.835l-7.171,4.14a1.637,1.637,0,0,1-2.455-1.417v-8.28a1.637,1.637,0,0,1,2.455-1.417Z" transform="translate(-91.02 -178.528)" fill="#eceff1" fill-rule="evenodd"/>
              <path id="Path_1260090" data-name="Path 1260090" d="M101.073,196.058a1.636,1.636,0,0,1-2.323-1.486v-8.28a1.637,1.637,0,0,1,2.323-1.486c-.045.021-.089.043-.132.068a1.636,1.636,0,0,0-.818,1.417v8.28a1.637,1.637,0,0,0,.818,1.417C100.984,196.015,101.028,196.038,101.073,196.058Z" transform="translate(-91.02 -178.528)" fill="#d1d1d6" fill-rule="evenodd"/>
            </g>
          </g>
          <path id="Path_1260091" data-name="Path 1260091" d="M46.351,50.124a13,13,0,0,1,0-25.913V10.955A3.964,3.964,0,0,1,50.306,7H80.63a3.964,3.964,0,0,1,3.951,3.955v3.091h7.091a3.343,3.343,0,0,1,3.336,3.336v11.21a3.34,3.34,0,0,1-3.336,3.333H84.58V39.95h3.846A2.464,2.464,0,0,1,90.88,42.4V58.159a2.464,2.464,0,0,1-2.453,2.46H84.58V71.143A3.964,3.964,0,0,1,80.63,75.1H50.306a3.964,3.964,0,0,1-3.955-3.955Zm2.2-25.913a13,13,0,0,1,0,25.913V71.143A1.762,1.762,0,0,0,50.306,72.9H80.63a1.761,1.761,0,0,0,1.754-1.758V60.619H69.954a2.464,2.464,0,0,1-2.453-2.46V42.4a2.464,2.464,0,0,1,2.453-2.453H82.384V31.924H82.03l-4.053,4.22a1.1,1.1,0,0,1-1.89-.761V31.924h-.794a3.34,3.34,0,0,1-3.336-3.333V17.382a3.343,3.343,0,0,1,3.336-3.336h7.091V10.955A1.761,1.761,0,0,0,80.63,9.2H76.414L75.28,12.68a1.1,1.1,0,0,1-1.044.758H56.7a1.1,1.1,0,0,1-1.045-.759L54.52,9.2H50.306a1.762,1.762,0,0,0-1.758,1.758ZM74.1,9.2H56.83l.664,2.045H73.438ZM92.811,28.591V17.382a1.142,1.142,0,0,0-1.139-1.14H75.292a1.142,1.142,0,0,0-1.14,1.14v11.21a1.14,1.14,0,0,0,1.14,1.136h1.893a1.1,1.1,0,0,1,1.1,1.1v1.828l2.487-2.589a1.1,1.1,0,0,1,.792-.337H91.672A1.14,1.14,0,0,0,92.811,28.591Zm-15.4-4.468a1.1,1.1,0,1,1,0-2.2H89.353a1.1,1.1,0,0,1,0,2.2Zm0-3.552a1.1,1.1,0,1,1,0-2.2H89.353a1.1,1.1,0,0,1,0,2.2Zm0,7.1a1.1,1.1,0,1,1,0-2.2H89.353a1.1,1.1,0,0,1,0,2.2ZM88.683,50.514V42.4a.258.258,0,0,0-.257-.257H69.954a.258.258,0,0,0-.257.257v9.2L74.2,48.2a1.1,1.1,0,0,1,1.485.146l3.05,3.435,5.579-5.093a1.1,1.1,0,0,1,1.62.153ZM69.7,54.363v3.8a.261.261,0,0,0,.257.263H88.426a.261.261,0,0,0,.257-.263V54.182L84.9,49.124,77.482,55.9A1.1,1.1,0,1,1,76,54.273l1.111-1.014-2.4-2.7Zm9.08-5.878A1.49,1.49,0,1,1,80.265,47,1.491,1.491,0,0,1,78.778,48.485ZM47.449,26.362A10.806,10.806,0,1,0,58.255,37.168,10.811,10.811,0,0,0,47.449,26.362Zm6,8.437a2.735,2.735,0,0,1,0,4.737l-7.171,4.14a2.735,2.735,0,0,1-4.1-2.369v-8.28a2.735,2.735,0,0,1,4.1-2.369Zm-1.1,1.9-7.171-4.14a.538.538,0,0,0-.807.466v8.28a.538.538,0,0,0,.807.466l7.171-4.14a.538.538,0,0,0,0-.932Zm10.61,27.747H67.97a2.972,2.972,0,1,1,0,5.944H62.961a2.972,2.972,0,1,1,0-5.944Zm0,2.2a.775.775,0,1,0,0,1.551H67.97a.775.775,0,1,0,0-1.551Z" transform="translate(-34.447 -7)" fill-rule="evenodd"/>
        </g>
      </g>
    </g>
    <path id="Path_1260076" data-name="Path 1260076" d="M16.614.687H.856V7.046h11.25L.856,18.219,5.4,22.735,16.614,11.6V22.735h6.441V.687Z" transform="translate(799.924 2039.266)" fill="#1f1321" fill-rule="evenodd"/>
    <path id="Path_1260092" data-name="Path 1260092" d="M5.755,17.459H17.742V12.622H9.184l8.558-8.5L14.284.687,5.755,9.157V.687H.856V17.459Z" transform="translate(883.039 1961.314)" fill="#1f1321" fill-rule="evenodd"/>
  </g>
</svg>
