<svg xmlns="http://www.w3.org/2000/svg" xmlns:xlink="http://www.w3.org/1999/xlink" width="118" height="118" viewBox="0 0 118 118">
  <defs>
    <filter id="Rectangle_411831" x="0" y="0" width="118" height="118" filterUnits="userSpaceOnUse">
      <feOffset dy="3" input="SourceAlpha"/>
      <feGaussianBlur stdDeviation="3" result="blur"/>
      <feFlood flood-opacity="0.161"/>
      <feComposite operator="in" in2="blur"/>
      <feComposite in="SourceGraphic"/>
    </filter>
  </defs>
  <g id="Group_1224017" data-name="Group 1224017" transform="translate(-791.781 -1956)">
    <g id="Group_1203409" data-name="Group 1203409" transform="translate(465 -1896)">
      <g transform="matrix(1, 0, 0, 1, 326.78, 3852)" filter="url(#Rectangle_411831)">
        <g id="Rectangle_411831-2" data-name="Rectangle 411831" transform="translate(9 6)" fill="#d9aef1" stroke="#fff" stroke-width="2">
          <path d="M5,0H68a32,32,0,0,1,32,32V95a5,5,0,0,1-5,5H32A32,32,0,0,1,0,68V5A5,5,0,0,1,5,0Z" stroke="none"/>
          <path d="M5,1H68A31,31,0,0,1,99,32V95a4,4,0,0,1-4,4H32A31,31,0,0,1,1,68V5A4,4,0,0,1,5,1Z" fill="none"/>
        </g>
      </g>
      <g id="Group_1224018" data-name="Group 1224018" transform="translate(-2475.011 6784.873)">
        <path id="Path_1291169" data-name="Path 1291169" d="M61.03,0H6.554A6.748,6.748,0,0,0,0,6.886V37.415H67.584V6.886A6.747,6.747,0,0,0,61.03,0" transform="translate(2827 -2905.269)" fill="#92b7e3" stroke="#000" stroke-width="2"/>
        <path id="Path_1291170" data-name="Path 1291170" d="M67.584,242.71v6.57a6.746,6.746,0,0,1-6.554,6.886H6.554A6.747,6.747,0,0,1,0,249.28v-6.57Z" transform="translate(2827 -3110.564)" fill="#6d96cf" stroke="#000" stroke-width="2"/>
        <path id="Path_1291171" data-name="Path 1291171" d="M221.925,278.747a1.356,1.356,0,0,1-1.322,1.387H189.38a3.407,3.407,0,0,0,0-2.775H220.6a1.356,1.356,0,0,1,1.322,1.387" transform="translate(2665.444 -3139.873)" fill="#e0dfe1"/>
        <path id="Path_1291172" data-name="Path 1291172" d="M155.4,268.487a3.372,3.372,0,0,1-.3,1.387,3.038,3.038,0,0,1-5.608,0,3.407,3.407,0,0,1,0-2.775,3.037,3.037,0,0,1,5.608,0,3.372,3.372,0,0,1,.3,1.387" transform="translate(2699.721 -3129.613)" fill="#da1d1c"/>
        <path id="Path_1291173" data-name="Path 1291173" d="M63.824,278.747a3.372,3.372,0,0,0,.3,1.387H50.442a1.389,1.389,0,0,1,0-2.775H64.119a3.372,3.372,0,0,0-.3,1.387" transform="translate(2785.097 -3139.873)" fill="#cccacb"/>
        <path id="Path_1291174" data-name="Path 1291174" d="M67.584,242.71v2.507H9.747A6.746,6.746,0,0,0,3.193,252.1v3.082A6.973,6.973,0,0,1,0,249.28v-6.57Z" transform="translate(2827 -3110.564)" fill="#396ab2" stroke="#000" stroke-width="2"/>
        <path id="Path_1291175" data-name="Path 1291175" d="M117.2,51.56H82.135a5.058,5.058,0,0,0-4.915,5.164v11.19a5.1,5.1,0,0,0,4.3,5.126,4.739,4.739,0,0,0,.613.04H117.2a5.061,5.061,0,0,0,4.916-5.166V56.724A5.059,5.059,0,0,0,117.2,51.56" transform="translate(2761.125 -2948.881)" fill="#d6030d" stroke="#000" stroke-width="2"/>
        <path id="Path_1291176" data-name="Path 1291176" d="M200.547,68.89H196.3a1.356,1.356,0,0,0-1.322,1.387v13.4a1.356,1.356,0,0,0,1.322,1.387h4.245a4.973,4.973,0,0,0,4.724-5.18V74.07a4.973,4.973,0,0,0-4.724-5.18m2.079,11a2.263,2.263,0,0,1-2.079,2.4h-2.922V71.665h2.922a2.263,2.263,0,0,1,2.079,2.4Z" transform="translate(2660.667 -2963.54)" fill="#f3f3f5"/>
        <path id="Path_1291177" data-name="Path 1291177" d="M289.252,80.328a4.736,4.736,0,0,1-4.722,4.737H279.2a1.389,1.389,0,0,1,0-2.775h5.327a1.966,1.966,0,1,0,0-3.925H282.6a4.738,4.738,0,0,1,0-9.476h5.327a1.389,1.389,0,0,1,0,2.775H282.6a1.966,1.966,0,1,0,0,3.926h1.928a4.735,4.735,0,0,1,4.722,4.737" transform="translate(2589.947 -2963.54)" fill="#f3f3f5"/>
        <path id="Path_1291178" data-name="Path 1291178" d="M116.083,83.543l-.63-6.7v0L115.185,74a5.238,5.238,0,0,0-2.687-4.6,4.36,4.36,0,0,0-2.035-.506h-.12A4.967,4.967,0,0,0,105.62,74l-.266,2.836s0,0,0,0l-.63,6.7a1.408,1.408,0,0,0,.632,1.323,1.27,1.27,0,0,0,.554.194,1.342,1.342,0,0,0,1.447-1.246l.511-5.448h5.072l.513,5.448a1.348,1.348,0,0,0,1.313,1.252,1.267,1.267,0,0,0,.132-.006,1.372,1.372,0,0,0,1.186-1.517m-7.652-7.951h-.3l.131-1.384c0-.046.006-.091.006-.137a2.263,2.263,0,0,1,2.077-2.4h.12a1.632,1.632,0,0,1,.289.025,2.319,2.319,0,0,1,1.788,2.38c0,.046,0,.091.007.137l.129,1.384Z" transform="translate(2737.669 -2963.54)" fill="#f3f3f5"/>
      </g>
    </g>
    <path id="Path_1260076" data-name="Path 1260076" d="M16.614.687H.856V7.046h11.25L.856,18.219,5.4,22.735,16.614,11.6V22.735h6.441V.687Z" transform="translate(799.924 2039.266)" fill="#1f1321" fill-rule="evenodd"/>
    <path id="Path_1260092" data-name="Path 1260092" d="M5.755,17.459H17.742V12.622H9.184l8.558-8.5L14.284.687,5.755,9.157V.687H.856V17.459Z" transform="translate(883.039 1961.314)" fill="#1f1321" fill-rule="evenodd"/>
  </g>
</svg>
